ISO-10303-21;
HEADER;
FILE_DESCRIPTION(('FreeCAD Model'),'2;1');
FILE_NAME('Open CASCADE Shape Model','2026-08-27T00:58:00',('Author'),(
    ''),'Open CASCADE STEP processor 7.8','FreeCAD','Unknown');
FILE_SCHEMA(('AUTOMOTIVE_DESIGN { 1 0 10303 214 1 1 1 1 }'));
ENDSEC;
DATA;
#1 = APPLICATION_PROTOCOL_DEFINITION('international standard',
  'automotive_design',2000,#2);
#2 = APPLICATION_CONTEXT(
  'core data for automotive mechanical design processes');
#3 = SHAPE_DEFINITION_REPRESENTATION(#4,#10);
#4 = PRODUCT_DEFINITION_SHAPE('','',#5);
#5 = PRODUCT_DEFINITION('design','',#6,#9);
#6 = PRODUCT_DEFINITION_FORMATION('','',#7);
#7 = PRODUCT('Case','Case','',(#8));
#8 = PRODUCT_CONTEXT('',#2,'mechanical');
#9 = PRODUCT_DEFINITION_CONTEXT('part definition',#2,'design');
#10 = ADVANCED_BREP_SHAPE_REPRESENTATION('',(#11,#15),#719);
#11 = AXIS2_PLACEMENT_3D('',#12,#13,#14);
#12 = CARTESIAN_POINT('',(0.,0.,0.));
#13 = DIRECTION('',(0.,0.,1.));
#14 = DIRECTION('',(1.,0.,-0.));
#15 = MANIFOLD_SOLID_BREP('',#16);
#16 = CLOSED_SHELL('',(#17,#137,#168,#192,#216,#240,#264,#288,#312,#361,
    #385,#409,#433,#475,#524,#541,#575,#604,#616,#630,#642,#666,#686,
    #710));
#17 = ADVANCED_FACE('',(#18),#132,.T.);
#18 = FACE_BOUND('',#19,.T.);
#19 = EDGE_LOOP('',(#20,#30,#38,#46,#54,#62,#70,#78,#86,#94,#102,#110,
    #118,#126));
#20 = ORIENTED_EDGE('',*,*,#21,.F.);
#21 = EDGE_CURVE('',#22,#24,#26,.T.);
#22 = VERTEX_POINT('',#23);
#23 = CARTESIAN_POINT('',(10.,-18.5,9.));
#24 = VERTEX_POINT('',#25);
#25 = CARTESIAN_POINT('',(10.,30.,9.));
#26 = LINE('',#27,#28);
#27 = CARTESIAN_POINT('',(10.,-23.708157,9.));
#28 = VECTOR('',#29,1.);
#29 = DIRECTION('',(0.,1.,-1.2E-16));
#30 = ORIENTED_EDGE('',*,*,#31,.T.);
#31 = EDGE_CURVE('',#22,#32,#34,.T.);
#32 = VERTEX_POINT('',#33);
#33 = CARTESIAN_POINT('',(9.,-19.5,9.));
#34 = LINE('',#35,#36);
#35 = CARTESIAN_POINT('',(14.042307692308,-14.45769230769,9.));
#36 = VECTOR('',#37,1.);
#37 = DIRECTION('',(-0.707106781187,-0.707106781187,9.E-17));
#38 = ORIENTED_EDGE('',*,*,#39,.T.);
#39 = EDGE_CURVE('',#32,#40,#42,.T.);
#40 = VERTEX_POINT('',#41);
#41 = CARTESIAN_POINT('',(8.,-19.5,9.));
#42 = LINE('',#43,#44);
#43 = CARTESIAN_POINT('',(10.,-19.5,9.));
#44 = VECTOR('',#45,1.);
#45 = DIRECTION('',(-1.,0.,-0.));
#46 = ORIENTED_EDGE('',*,*,#47,.T.);
#47 = EDGE_CURVE('',#40,#48,#50,.T.);
#48 = VERTEX_POINT('',#49);
#49 = CARTESIAN_POINT('',(8.,-20.,9.));
#50 = LINE('',#51,#52);
#51 = CARTESIAN_POINT('',(8.,-19.5,9.));
#52 = VECTOR('',#53,1.);
#53 = DIRECTION('',(0.,-1.,1.2E-16));
#54 = ORIENTED_EDGE('',*,*,#55,.T.);
#55 = EDGE_CURVE('',#48,#56,#58,.T.);
#56 = VERTEX_POINT('',#57);
#57 = CARTESIAN_POINT('',(12.,-20.,9.));
#58 = LINE('',#59,#60);
#59 = CARTESIAN_POINT('',(8.,-20.,9.));
#60 = VECTOR('',#61,1.);
#61 = DIRECTION('',(1.,0.,0.));
#62 = ORIENTED_EDGE('',*,*,#63,.T.);
#63 = EDGE_CURVE('',#56,#64,#66,.T.);
#64 = VERTEX_POINT('',#65);
#65 = CARTESIAN_POINT('',(12.,32.,9.));
#66 = LINE('',#67,#68);
#67 = CARTESIAN_POINT('',(12.,-20.,9.));
#68 = VECTOR('',#69,1.);
#69 = DIRECTION('',(0.,1.,-1.2E-16));
#70 = ORIENTED_EDGE('',*,*,#71,.T.);
#71 = EDGE_CURVE('',#64,#72,#74,.T.);
#72 = VERTEX_POINT('',#73);
#73 = CARTESIAN_POINT('',(-12.,32.,9.));
#74 = LINE('',#75,#76);
#75 = CARTESIAN_POINT('',(12.,32.,9.));
#76 = VECTOR('',#77,1.);
#77 = DIRECTION('',(-1.,0.,-0.));
#78 = ORIENTED_EDGE('',*,*,#79,.T.);
#79 = EDGE_CURVE('',#72,#80,#82,.T.);
#80 = VERTEX_POINT('',#81);
#81 = CARTESIAN_POINT('',(-12.,-20.,9.));
#82 = LINE('',#83,#84);
#83 = CARTESIAN_POINT('',(-12.,32.,9.));
#84 = VECTOR('',#85,1.);
#85 = DIRECTION('',(0.,-1.,1.2E-16));
#86 = ORIENTED_EDGE('',*,*,#87,.T.);
#87 = EDGE_CURVE('',#80,#88,#90,.T.);
#88 = VERTEX_POINT('',#89);
#89 = CARTESIAN_POINT('',(-8.,-20.,9.));
#90 = LINE('',#91,#92);
#91 = CARTESIAN_POINT('',(-12.,-20.,9.));
#92 = VECTOR('',#93,1.);
#93 = DIRECTION('',(1.,0.,0.));
#94 = ORIENTED_EDGE('',*,*,#95,.T.);
#95 = EDGE_CURVE('',#88,#96,#98,.T.);
#96 = VERTEX_POINT('',#97);
#97 = CARTESIAN_POINT('',(-8.,-19.5,9.));
#98 = LINE('',#99,#100);
#99 = CARTESIAN_POINT('',(-8.,-20.,9.));
#100 = VECTOR('',#101,1.);
#101 = DIRECTION('',(0.,1.,-1.2E-16));
#102 = ORIENTED_EDGE('',*,*,#103,.T.);
#103 = EDGE_CURVE('',#96,#104,#106,.T.);
#104 = VERTEX_POINT('',#105);
#105 = CARTESIAN_POINT('',(-9.,-19.5,9.));
#106 = LINE('',#107,#108);
#107 = CARTESIAN_POINT('',(-8.,-19.5,9.));
#108 = VECTOR('',#109,1.);
#109 = DIRECTION('',(-1.,0.,-0.));
#110 = ORIENTED_EDGE('',*,*,#111,.T.);
#111 = EDGE_CURVE('',#104,#112,#114,.T.);
#112 = VERTEX_POINT('',#113);
#113 = CARTESIAN_POINT('',(-10.,-18.5,9.));
#114 = LINE('',#115,#116);
#115 = CARTESIAN_POINT('',(-14.0423076923,-14.45769230769,9.));
#116 = VECTOR('',#117,1.);
#117 = DIRECTION('',(-0.707106781187,0.707106781187,-9.E-17));
#118 = ORIENTED_EDGE('',*,*,#119,.F.);
#119 = EDGE_CURVE('',#120,#112,#122,.T.);
#120 = VERTEX_POINT('',#121);
#121 = CARTESIAN_POINT('',(-10.,30.,9.));
#122 = LINE('',#123,#124);
#123 = CARTESIAN_POINT('',(-10.,30.,9.));
#124 = VECTOR('',#125,1.);
#125 = DIRECTION('',(0.,-1.,1.2E-16));
#126 = ORIENTED_EDGE('',*,*,#127,.F.);
#127 = EDGE_CURVE('',#24,#120,#128,.T.);
#128 = LINE('',#129,#130);
#129 = CARTESIAN_POINT('',(10.,30.,9.));
#130 = VECTOR('',#131,1.);
#131 = DIRECTION('',(-1.,0.,-0.));
#132 = PLANE('',#133);
#133 = AXIS2_PLACEMENT_3D('',#134,#135,#136);
#134 = CARTESIAN_POINT('',(0.,8.669230769231,9.));
#135 = DIRECTION('',(0.,1.2E-16,1.));
#136 = DIRECTION('',(-1.,0.,0.));
#137 = ADVANCED_FACE('',(#138),#163,.T.);
#138 = FACE_BOUND('',#139,.T.);
#139 = EDGE_LOOP('',(#140,#150,#156,#157));
#140 = ORIENTED_EDGE('',*,*,#141,.T.);
#141 = EDGE_CURVE('',#142,#144,#146,.T.);
#142 = VERTEX_POINT('',#143);
#143 = CARTESIAN_POINT('',(10.,30.,0.));
#144 = VERTEX_POINT('',#145);
#145 = CARTESIAN_POINT('',(10.,-18.5,1.998401444325E-15));
#146 = LINE('',#147,#148);
#147 = CARTESIAN_POINT('',(10.,30.,0.));
#148 = VECTOR('',#149,1.);
#149 = DIRECTION('',(0.,-1.,0.));
#150 = ORIENTED_EDGE('',*,*,#151,.T.);
#151 = EDGE_CURVE('',#144,#22,#152,.T.);
#152 = LINE('',#153,#154);
#153 = CARTESIAN_POINT('',(10.,-18.5,-3.3E-16));
#154 = VECTOR('',#155,1.);
#155 = DIRECTION('',(0.,0.,1.));
#156 = ORIENTED_EDGE('',*,*,#21,.T.);
#157 = ORIENTED_EDGE('',*,*,#158,.F.);
#158 = EDGE_CURVE('',#142,#24,#159,.T.);
#159 = LINE('',#160,#161);
#160 = CARTESIAN_POINT('',(10.,30.,7.));
#161 = VECTOR('',#162,1.);
#162 = DIRECTION('',(0.,1.2E-16,1.));
#163 = PLANE('',#164);
#164 = AXIS2_PLACEMENT_3D('',#165,#166,#167);
#165 = CARTESIAN_POINT('',(10.,5.25,4.5));
#166 = DIRECTION('',(-1.,0.,0.));
#167 = DIRECTION('',(0.,1.2E-16,1.));
#168 = ADVANCED_FACE('',(#169),#187,.F.);
#169 = FACE_BOUND('',#170,.F.);
#170 = EDGE_LOOP('',(#171,#179,#180,#181));
#171 = ORIENTED_EDGE('',*,*,#172,.F.);
#172 = EDGE_CURVE('',#144,#173,#175,.T.);
#173 = VERTEX_POINT('',#174);
#174 = CARTESIAN_POINT('',(9.,-19.5,5.107025913276E-15));
#175 = LINE('',#176,#177);
#176 = CARTESIAN_POINT('',(12.661480375,-15.838519625,2.E-15));
#177 = VECTOR('',#178,1.);
#178 = DIRECTION('',(-0.707106781187,-0.707106781187,9.E-17));
#179 = ORIENTED_EDGE('',*,*,#151,.T.);
#180 = ORIENTED_EDGE('',*,*,#31,.T.);
#181 = ORIENTED_EDGE('',*,*,#182,.F.);
#182 = EDGE_CURVE('',#173,#32,#183,.T.);
#183 = LINE('',#184,#185);
#184 = CARTESIAN_POINT('',(9.,-19.5,-2.2E-16));
#185 = VECTOR('',#186,1.);
#186 = DIRECTION('',(0.,0.,1.));
#187 = PLANE('',#188);
#188 = AXIS2_PLACEMENT_3D('',#189,#190,#191);
#189 = CARTESIAN_POINT('',(9.5,-19.,-3.3E-16));
#190 = DIRECTION('',(0.707106781187,-0.707106781187,9.E-17));
#191 = DIRECTION('',(-6.363961030679E-17,6.363961030679E-17,1.));
#192 = ADVANCED_FACE('',(#193),#211,.T.);
#193 = FACE_BOUND('',#194,.T.);
#194 = EDGE_LOOP('',(#195,#203,#204,#205));
#195 = ORIENTED_EDGE('',*,*,#196,.T.);
#196 = EDGE_CURVE('',#197,#142,#199,.T.);
#197 = VERTEX_POINT('',#198);
#198 = CARTESIAN_POINT('',(-10.,30.,0.));
#199 = LINE('',#200,#201);
#200 = CARTESIAN_POINT('',(-10.,30.,0.));
#201 = VECTOR('',#202,1.);
#202 = DIRECTION('',(1.,0.,0.));
#203 = ORIENTED_EDGE('',*,*,#158,.T.);
#204 = ORIENTED_EDGE('',*,*,#127,.T.);
#205 = ORIENTED_EDGE('',*,*,#206,.F.);
#206 = EDGE_CURVE('',#197,#120,#207,.T.);
#207 = LINE('',#208,#209);
#208 = CARTESIAN_POINT('',(-10.,30.,7.));
#209 = VECTOR('',#210,1.);
#210 = DIRECTION('',(0.,1.2E-16,1.));
#211 = PLANE('',#212);
#212 = AXIS2_PLACEMENT_3D('',#213,#214,#215);
#213 = CARTESIAN_POINT('',(0.,30.,4.5));
#214 = DIRECTION('',(0.,-1.,4.2E-16));
#215 = DIRECTION('',(0.,-4.2E-16,-1.));
#216 = ADVANCED_FACE('',(#217),#235,.T.);
#217 = FACE_BOUND('',#218,.T.);
#218 = EDGE_LOOP('',(#219,#227,#233,#234));
#219 = ORIENTED_EDGE('',*,*,#220,.T.);
#220 = EDGE_CURVE('',#173,#221,#223,.T.);
#221 = VERTEX_POINT('',#222);
#222 = CARTESIAN_POINT('',(8.,-19.5,3.10862446895E-15));
#223 = LINE('',#224,#225);
#224 = CARTESIAN_POINT('',(10.,-19.5,2.442490654175E-15));
#225 = VECTOR('',#226,1.);
#226 = DIRECTION('',(-1.,0.,-0.));
#227 = ORIENTED_EDGE('',*,*,#228,.T.);
#228 = EDGE_CURVE('',#221,#40,#229,.T.);
#229 = LINE('',#230,#231);
#230 = CARTESIAN_POINT('',(8.,-19.5,0.));
#231 = VECTOR('',#232,1.);
#232 = DIRECTION('',(0.,0.,1.));
#233 = ORIENTED_EDGE('',*,*,#39,.F.);
#234 = ORIENTED_EDGE('',*,*,#182,.F.);
#235 = PLANE('',#236);
#236 = AXIS2_PLACEMENT_3D('',#237,#238,#239);
#237 = CARTESIAN_POINT('',(9.,-19.5,4.5));
#238 = DIRECTION('',(0.,1.,-1.2E-16));
#239 = DIRECTION('',(0.,1.2E-16,1.));
#240 = ADVANCED_FACE('',(#241),#259,.T.);
#241 = FACE_BOUND('',#242,.T.);
#242 = EDGE_LOOP('',(#243,#251,#252,#253));
#243 = ORIENTED_EDGE('',*,*,#244,.T.);
#244 = EDGE_CURVE('',#245,#197,#247,.T.);
#245 = VERTEX_POINT('',#246);
#246 = CARTESIAN_POINT('',(-10.,-18.5,1.998401444325E-15));
#247 = LINE('',#248,#249);
#248 = CARTESIAN_POINT('',(-10.,-20.000000766,0.));
#249 = VECTOR('',#250,1.);
#250 = DIRECTION('',(0.,1.,0.));
#251 = ORIENTED_EDGE('',*,*,#206,.T.);
#252 = ORIENTED_EDGE('',*,*,#119,.T.);
#253 = ORIENTED_EDGE('',*,*,#254,.F.);
#254 = EDGE_CURVE('',#245,#112,#255,.T.);
#255 = LINE('',#256,#257);
#256 = CARTESIAN_POINT('',(-10.,-18.5,-3.3E-16));
#257 = VECTOR('',#258,1.);
#258 = DIRECTION('',(0.,0.,1.));
#259 = PLANE('',#260);
#260 = AXIS2_PLACEMENT_3D('',#261,#262,#263);
#261 = CARTESIAN_POINT('',(-10.,5.25,4.5));
#262 = DIRECTION('',(1.,0.,0.));
#263 = DIRECTION('',(0.,-1.2E-16,-1.));
#264 = ADVANCED_FACE('',(#265),#283,.T.);
#265 = FACE_BOUND('',#266,.T.);
#266 = EDGE_LOOP('',(#267,#268,#276,#282));
#267 = ORIENTED_EDGE('',*,*,#228,.F.);
#268 = ORIENTED_EDGE('',*,*,#269,.T.);
#269 = EDGE_CURVE('',#221,#270,#272,.T.);
#270 = VERTEX_POINT('',#271);
#271 = CARTESIAN_POINT('',(8.,-20.,3.10862446895E-15));
#272 = LINE('',#273,#274);
#273 = CARTESIAN_POINT('',(8.,-19.5,2.442490654175E-15));
#274 = VECTOR('',#275,1.);
#275 = DIRECTION('',(0.,-1.,1.2E-16));
#276 = ORIENTED_EDGE('',*,*,#277,.T.);
#277 = EDGE_CURVE('',#270,#48,#278,.T.);
#278 = LINE('',#279,#280);
#279 = CARTESIAN_POINT('',(8.,-20.,0.));
#280 = VECTOR('',#281,1.);
#281 = DIRECTION('',(0.,0.,1.));
#282 = ORIENTED_EDGE('',*,*,#47,.F.);
#283 = PLANE('',#284);
#284 = AXIS2_PLACEMENT_3D('',#285,#286,#287);
#285 = CARTESIAN_POINT('',(8.,-19.75,4.5));
#286 = DIRECTION('',(-1.,0.,0.));
#287 = DIRECTION('',(0.,1.2E-16,1.));
#288 = ADVANCED_FACE('',(#289),#307,.F.);
#289 = FACE_BOUND('',#290,.F.);
#290 = EDGE_LOOP('',(#291,#299,#305,#306));
#291 = ORIENTED_EDGE('',*,*,#292,.F.);
#292 = EDGE_CURVE('',#293,#245,#295,.T.);
#293 = VERTEX_POINT('',#294);
#294 = CARTESIAN_POINT('',(-9.,-19.5,5.107025913276E-15));
#295 = LINE('',#296,#297);
#296 = CARTESIAN_POINT('',(-12.661480375,-15.838519625,2.E-15));
#297 = VECTOR('',#298,1.);
#298 = DIRECTION('',(-0.707106781187,0.707106781187,-9.E-17));
#299 = ORIENTED_EDGE('',*,*,#300,.T.);
#300 = EDGE_CURVE('',#293,#104,#301,.T.);
#301 = LINE('',#302,#303);
#302 = CARTESIAN_POINT('',(-9.,-19.5,-2.2E-16));
#303 = VECTOR('',#304,1.);
#304 = DIRECTION('',(0.,0.,1.));
#305 = ORIENTED_EDGE('',*,*,#111,.T.);
#306 = ORIENTED_EDGE('',*,*,#254,.F.);
#307 = PLANE('',#308);
#308 = AXIS2_PLACEMENT_3D('',#309,#310,#311);
#309 = CARTESIAN_POINT('',(-9.5,-19.,-3.3E-16));
#310 = DIRECTION('',(-0.707106781187,-0.707106781187,9.E-17));
#311 = DIRECTION('',(6.363961030679E-17,6.363961030679E-17,1.));
#312 = ADVANCED_FACE('',(#313),#356,.T.);
#313 = FACE_BOUND('',#314,.T.);
#314 = EDGE_LOOP('',(#315,#325,#334,#340,#341,#342,#350));
#315 = ORIENTED_EDGE('',*,*,#316,.T.);
#316 = EDGE_CURVE('',#317,#319,#321,.T.);
#317 = VERTEX_POINT('',#318);
#318 = CARTESIAN_POINT('',(10.,-20.000000766,-2.));
#319 = VERTEX_POINT('',#320);
#320 = CARTESIAN_POINT('',(11.,-20.,-2.));
#321 = LINE('',#322,#323);
#322 = CARTESIAN_POINT('',(-12.,-20.,-2.));
#323 = VECTOR('',#324,1.);
#324 = DIRECTION('',(1.,0.,0.));
#325 = ORIENTED_EDGE('',*,*,#326,.T.);
#326 = EDGE_CURVE('',#319,#327,#329,.T.);
#327 = VERTEX_POINT('',#328);
#328 = CARTESIAN_POINT('',(12.,-20.,-1.));
#329 = CIRCLE('',#330,1.);
#330 = AXIS2_PLACEMENT_3D('',#331,#332,#333);
#331 = CARTESIAN_POINT('',(11.,-20.00000018201,-1.));
#332 = DIRECTION('',(0.,-1.,0.));
#333 = DIRECTION('',(0.,0.,1.));
#334 = ORIENTED_EDGE('',*,*,#335,.T.);
#335 = EDGE_CURVE('',#327,#56,#336,.T.);
#336 = LINE('',#337,#338);
#337 = CARTESIAN_POINT('',(12.,-20.,7.));
#338 = VECTOR('',#339,1.);
#339 = DIRECTION('',(0.,1.2E-16,1.));
#340 = ORIENTED_EDGE('',*,*,#55,.F.);
#341 = ORIENTED_EDGE('',*,*,#277,.F.);
#342 = ORIENTED_EDGE('',*,*,#343,.F.);
#343 = EDGE_CURVE('',#344,#270,#346,.T.);
#344 = VERTEX_POINT('',#345);
#345 = CARTESIAN_POINT('',(10.,-20.000000766,0.));
#346 = LINE('',#347,#348);
#347 = CARTESIAN_POINT('',(10.,-20.000000766,0.));
#348 = VECTOR('',#349,1.);
#349 = DIRECTION('',(-1.,0.,0.));
#350 = ORIENTED_EDGE('',*,*,#351,.T.);
#351 = EDGE_CURVE('',#344,#317,#352,.T.);
#352 = LINE('',#353,#354);
#353 = CARTESIAN_POINT('',(10.,-20.000000766,-1.));
#354 = VECTOR('',#355,1.);
#355 = DIRECTION('',(0.,-1.2E-16,-1.));
#356 = PLANE('',#357);
#357 = AXIS2_PLACEMENT_3D('',#358,#359,#360);
#358 = CARTESIAN_POINT('',(10.133333333333,-20.00000010213,
    3.633333333333));
#359 = DIRECTION('',(2.346585342E-08,-1.,2.162966499E-08));
#360 = DIRECTION('',(1.,2.346585342E-08,-9.860761315263E-32));
#361 = ADVANCED_FACE('',(#362),#380,.T.);
#362 = FACE_BOUND('',#363,.T.);
#363 = EDGE_LOOP('',(#364,#372,#373,#374));
#364 = ORIENTED_EDGE('',*,*,#365,.T.);
#365 = EDGE_CURVE('',#366,#293,#368,.T.);
#366 = VERTEX_POINT('',#367);
#367 = CARTESIAN_POINT('',(-8.,-19.5,3.10862446895E-15));
#368 = LINE('',#369,#370);
#369 = CARTESIAN_POINT('',(-8.,-19.5,2.442490654175E-15));
#370 = VECTOR('',#371,1.);
#371 = DIRECTION('',(-1.,0.,-0.));
#372 = ORIENTED_EDGE('',*,*,#300,.T.);
#373 = ORIENTED_EDGE('',*,*,#103,.F.);
#374 = ORIENTED_EDGE('',*,*,#375,.F.);
#375 = EDGE_CURVE('',#366,#96,#376,.T.);
#376 = LINE('',#377,#378);
#377 = CARTESIAN_POINT('',(-8.,-19.5,7.));
#378 = VECTOR('',#379,1.);
#379 = DIRECTION('',(0.,1.2E-16,1.));
#380 = PLANE('',#381);
#381 = AXIS2_PLACEMENT_3D('',#382,#383,#384);
#382 = CARTESIAN_POINT('',(-9.,-19.5,4.5));
#383 = DIRECTION('',(0.,1.,-1.2E-16));
#384 = DIRECTION('',(0.,1.2E-16,1.));
#385 = ADVANCED_FACE('',(#386),#404,.T.);
#386 = FACE_BOUND('',#387,.T.);
#387 = EDGE_LOOP('',(#388,#389,#397,#403));
#388 = ORIENTED_EDGE('',*,*,#335,.F.);
#389 = ORIENTED_EDGE('',*,*,#390,.T.);
#390 = EDGE_CURVE('',#327,#391,#393,.T.);
#391 = VERTEX_POINT('',#392);
#392 = CARTESIAN_POINT('',(12.,32.,-1.));
#393 = LINE('',#394,#395);
#394 = CARTESIAN_POINT('',(12.,-20.,-1.));
#395 = VECTOR('',#396,1.);
#396 = DIRECTION('',(0.,1.,0.));
#397 = ORIENTED_EDGE('',*,*,#398,.T.);
#398 = EDGE_CURVE('',#391,#64,#399,.T.);
#399 = LINE('',#400,#401);
#400 = CARTESIAN_POINT('',(12.,32.,7.));
#401 = VECTOR('',#402,1.);
#402 = DIRECTION('',(0.,1.2E-16,1.));
#403 = ORIENTED_EDGE('',*,*,#63,.F.);
#404 = PLANE('',#405);
#405 = AXIS2_PLACEMENT_3D('',#406,#407,#408);
#406 = CARTESIAN_POINT('',(12.,6.,3.5));
#407 = DIRECTION('',(1.,0.,0.));
#408 = DIRECTION('',(0.,-1.2E-16,-1.));
#409 = ADVANCED_FACE('',(#410),#428,.T.);
#410 = FACE_BOUND('',#411,.T.);
#411 = EDGE_LOOP('',(#412,#420,#421,#422));
#412 = ORIENTED_EDGE('',*,*,#413,.T.);
#413 = EDGE_CURVE('',#414,#366,#416,.T.);
#414 = VERTEX_POINT('',#415);
#415 = CARTESIAN_POINT('',(-8.,-20.,3.10862446895E-15));
#416 = LINE('',#417,#418);
#417 = CARTESIAN_POINT('',(-8.,-20.,2.442490654175E-15));
#418 = VECTOR('',#419,1.);
#419 = DIRECTION('',(0.,1.,-1.2E-16));
#420 = ORIENTED_EDGE('',*,*,#375,.T.);
#421 = ORIENTED_EDGE('',*,*,#95,.F.);
#422 = ORIENTED_EDGE('',*,*,#423,.F.);
#423 = EDGE_CURVE('',#414,#88,#424,.T.);
#424 = LINE('',#425,#426);
#425 = CARTESIAN_POINT('',(-8.,-20.,7.));
#426 = VECTOR('',#427,1.);
#427 = DIRECTION('',(0.,1.2E-16,1.));
#428 = PLANE('',#429);
#429 = AXIS2_PLACEMENT_3D('',#430,#431,#432);
#430 = CARTESIAN_POINT('',(-8.,-19.75,4.5));
#431 = DIRECTION('',(1.,0.,0.));
#432 = DIRECTION('',(0.,-1.2E-16,-1.));
#433 = ADVANCED_FACE('',(#434),#470,.T.);
#434 = FACE_BOUND('',#435,.T.);
#435 = EDGE_LOOP('',(#436,#446,#455,#461,#462,#463));
#436 = ORIENTED_EDGE('',*,*,#437,.T.);
#437 = EDGE_CURVE('',#438,#440,#442,.T.);
#438 = VERTEX_POINT('',#439);
#439 = CARTESIAN_POINT('',(11.,32.,-2.));
#440 = VERTEX_POINT('',#441);
#441 = CARTESIAN_POINT('',(-11.,32.,-2.));
#442 = LINE('',#443,#444);
#443 = CARTESIAN_POINT('',(12.,32.,-2.));
#444 = VECTOR('',#445,1.);
#445 = DIRECTION('',(-1.,0.,-0.));
#446 = ORIENTED_EDGE('',*,*,#447,.T.);
#447 = EDGE_CURVE('',#440,#448,#450,.T.);
#448 = VERTEX_POINT('',#449);
#449 = CARTESIAN_POINT('',(-12.,32.,-1.));
#450 = CIRCLE('',#451,1.);
#451 = AXIS2_PLACEMENT_3D('',#452,#453,#454);
#452 = CARTESIAN_POINT('',(-11.,32.,-1.));
#453 = DIRECTION('',(-0.,1.,0.));
#454 = DIRECTION('',(0.,0.,-1.));
#455 = ORIENTED_EDGE('',*,*,#456,.T.);
#456 = EDGE_CURVE('',#448,#72,#457,.T.);
#457 = LINE('',#458,#459);
#458 = CARTESIAN_POINT('',(-12.,32.,0.));
#459 = VECTOR('',#460,1.);
#460 = DIRECTION('',(0.,0.,1.));
#461 = ORIENTED_EDGE('',*,*,#71,.F.);
#462 = ORIENTED_EDGE('',*,*,#398,.F.);
#463 = ORIENTED_EDGE('',*,*,#464,.F.);
#464 = EDGE_CURVE('',#438,#391,#465,.T.);
#465 = CIRCLE('',#466,1.);
#466 = AXIS2_PLACEMENT_3D('',#467,#468,#469);
#467 = CARTESIAN_POINT('',(11.,32.,-1.));
#468 = DIRECTION('',(0.,-1.,0.));
#469 = DIRECTION('',(0.,0.,1.));
#470 = PLANE('',#471);
#471 = AXIS2_PLACEMENT_3D('',#472,#473,#474);
#472 = CARTESIAN_POINT('',(0.,32.,3.5));
#473 = DIRECTION('',(0.,1.,-1.2E-16));
#474 = DIRECTION('',(0.,1.2E-16,1.));
#475 = ADVANCED_FACE('',(#476),#519,.T.);
#476 = FACE_BOUND('',#477,.T.);
#477 = EDGE_LOOP('',(#478,#486,#495,#503,#511,#517,#518));
#478 = ORIENTED_EDGE('',*,*,#479,.F.);
#479 = EDGE_CURVE('',#480,#80,#482,.T.);
#480 = VERTEX_POINT('',#481);
#481 = CARTESIAN_POINT('',(-12.,-20.,-1.));
#482 = LINE('',#483,#484);
#483 = CARTESIAN_POINT('',(-12.,-20.,0.));
#484 = VECTOR('',#485,1.);
#485 = DIRECTION('',(0.,0.,1.));
#486 = ORIENTED_EDGE('',*,*,#487,.F.);
#487 = EDGE_CURVE('',#488,#480,#490,.T.);
#488 = VERTEX_POINT('',#489);
#489 = CARTESIAN_POINT('',(-11.,-20.,-2.));
#490 = CIRCLE('',#491,1.);
#491 = AXIS2_PLACEMENT_3D('',#492,#493,#494);
#492 = CARTESIAN_POINT('',(-11.,-20.00000018201,-1.));
#493 = DIRECTION('',(-0.,1.,0.));
#494 = DIRECTION('',(0.,0.,-1.));
#495 = ORIENTED_EDGE('',*,*,#496,.T.);
#496 = EDGE_CURVE('',#488,#497,#499,.T.);
#497 = VERTEX_POINT('',#498);
#498 = CARTESIAN_POINT('',(-10.,-20.000000766,-2.));
#499 = LINE('',#500,#501);
#500 = CARTESIAN_POINT('',(-12.,-20.,-2.));
#501 = VECTOR('',#502,1.);
#502 = DIRECTION('',(1.,0.,0.));
#503 = ORIENTED_EDGE('',*,*,#504,.T.);
#504 = EDGE_CURVE('',#497,#505,#507,.T.);
#505 = VERTEX_POINT('',#506);
#506 = CARTESIAN_POINT('',(-10.,-20.000000766,0.));
#507 = LINE('',#508,#509);
#508 = CARTESIAN_POINT('',(-10.,-20.000000766,-1.));
#509 = VECTOR('',#510,1.);
#510 = DIRECTION('',(0.,-1.2E-16,1.));
#511 = ORIENTED_EDGE('',*,*,#512,.F.);
#512 = EDGE_CURVE('',#414,#505,#513,.T.);
#513 = LINE('',#514,#515);
#514 = CARTESIAN_POINT('',(10.,-20.000000766,0.));
#515 = VECTOR('',#516,1.);
#516 = DIRECTION('',(-1.,0.,0.));
#517 = ORIENTED_EDGE('',*,*,#423,.T.);
#518 = ORIENTED_EDGE('',*,*,#87,.F.);
#519 = PLANE('',#520);
#520 = AXIS2_PLACEMENT_3D('',#521,#522,#523);
#521 = CARTESIAN_POINT('',(-10.13333333333,-20.00000010213,
    3.633333333333));
#522 = DIRECTION('',(-2.346585342E-08,-1.,2.162966499E-08));
#523 = DIRECTION('',(1.,-2.346585342E-08,9.860761315263E-32));
#524 = ADVANCED_FACE('',(#525),#536,.T.);
#525 = FACE_BOUND('',#526,.T.);
#526 = EDGE_LOOP('',(#527,#528,#534,#535));
#527 = ORIENTED_EDGE('',*,*,#456,.F.);
#528 = ORIENTED_EDGE('',*,*,#529,.T.);
#529 = EDGE_CURVE('',#448,#480,#530,.T.);
#530 = LINE('',#531,#532);
#531 = CARTESIAN_POINT('',(-12.,32.,-1.));
#532 = VECTOR('',#533,1.);
#533 = DIRECTION('',(0.,-1.,0.));
#534 = ORIENTED_EDGE('',*,*,#479,.T.);
#535 = ORIENTED_EDGE('',*,*,#79,.F.);
#536 = PLANE('',#537);
#537 = AXIS2_PLACEMENT_3D('',#538,#539,#540);
#538 = CARTESIAN_POINT('',(-12.,6.,3.5));
#539 = DIRECTION('',(-1.,0.,0.));
#540 = DIRECTION('',(0.,1.2E-16,1.));
#541 = ADVANCED_FACE('',(#542,#559),#570,.T.);
#542 = FACE_BOUND('',#543,.T.);
#543 = EDGE_LOOP('',(#544,#545,#546,#547,#548,#549,#550,#556,#557,#558)
  );
#544 = ORIENTED_EDGE('',*,*,#141,.F.);
#545 = ORIENTED_EDGE('',*,*,#196,.F.);
#546 = ORIENTED_EDGE('',*,*,#244,.F.);
#547 = ORIENTED_EDGE('',*,*,#292,.F.);
#548 = ORIENTED_EDGE('',*,*,#365,.F.);
#549 = ORIENTED_EDGE('',*,*,#413,.F.);
#550 = ORIENTED_EDGE('',*,*,#551,.F.);
#551 = EDGE_CURVE('',#270,#414,#552,.T.);
#552 = LINE('',#553,#554);
#553 = CARTESIAN_POINT('',(10.,-20.000000766,0.));
#554 = VECTOR('',#555,1.);
#555 = DIRECTION('',(-1.,0.,0.));
#556 = ORIENTED_EDGE('',*,*,#269,.F.);
#557 = ORIENTED_EDGE('',*,*,#220,.F.);
#558 = ORIENTED_EDGE('',*,*,#172,.F.);
#559 = FACE_BOUND('',#560,.T.);
#560 = EDGE_LOOP('',(#561));
#561 = ORIENTED_EDGE('',*,*,#562,.F.);
#562 = EDGE_CURVE('',#563,#563,#565,.T.);
#563 = VERTEX_POINT('',#564);
#564 = CARTESIAN_POINT('',(1.15,26.974312,-3.996802888651E-15));
#565 = CIRCLE('',#566,1.15);
#566 = AXIS2_PLACEMENT_3D('',#567,#568,#569);
#567 = CARTESIAN_POINT('',(0.,26.974312,0.));
#568 = DIRECTION('',(0.,0.,1.));
#569 = DIRECTION('',(1.,0.,0.));
#570 = PLANE('',#571);
#571 = AXIS2_PLACEMENT_3D('',#572,#573,#574);
#572 = CARTESIAN_POINT('',(0.,3.1459215,0.));
#573 = DIRECTION('',(0.,1.2E-16,1.));
#574 = DIRECTION('',(1.,0.,0.));
#575 = ADVANCED_FACE('',(#576),#599,.T.);
#576 = FACE_BOUND('',#577,.T.);
#577 = EDGE_LOOP('',(#578,#579,#585,#586,#592,#593));
#578 = ORIENTED_EDGE('',*,*,#437,.F.);
#579 = ORIENTED_EDGE('',*,*,#580,.F.);
#580 = EDGE_CURVE('',#319,#438,#581,.T.);
#581 = LINE('',#582,#583);
#582 = CARTESIAN_POINT('',(11.,-20.,-2.));
#583 = VECTOR('',#584,1.);
#584 = DIRECTION('',(0.,1.,0.));
#585 = ORIENTED_EDGE('',*,*,#316,.F.);
#586 = ORIENTED_EDGE('',*,*,#587,.T.);
#587 = EDGE_CURVE('',#317,#497,#588,.T.);
#588 = LINE('',#589,#590);
#589 = CARTESIAN_POINT('',(10.,-20.000000766,-2.));
#590 = VECTOR('',#591,1.);
#591 = DIRECTION('',(-1.,0.,0.));
#592 = ORIENTED_EDGE('',*,*,#496,.F.);
#593 = ORIENTED_EDGE('',*,*,#594,.F.);
#594 = EDGE_CURVE('',#440,#488,#595,.T.);
#595 = LINE('',#596,#597);
#596 = CARTESIAN_POINT('',(-11.,32.,-2.));
#597 = VECTOR('',#598,1.);
#598 = DIRECTION('',(0.,-1.,0.));
#599 = PLANE('',#600);
#600 = AXIS2_PLACEMENT_3D('',#601,#602,#603);
#601 = CARTESIAN_POINT('',(0.,5.99999989921,-2.));
#602 = DIRECTION('',(0.,-1.2E-16,-1.));
#603 = DIRECTION('',(1.,0.,0.));
#604 = ADVANCED_FACE('',(#605),#611,.T.);
#605 = FACE_BOUND('',#606,.F.);
#606 = EDGE_LOOP('',(#607,#608,#609,#610));
#607 = ORIENTED_EDGE('',*,*,#326,.T.);
#608 = ORIENTED_EDGE('',*,*,#390,.T.);
#609 = ORIENTED_EDGE('',*,*,#464,.F.);
#610 = ORIENTED_EDGE('',*,*,#580,.F.);
#611 = CYLINDRICAL_SURFACE('',#612,1.);
#612 = AXIS2_PLACEMENT_3D('',#613,#614,#615);
#613 = CARTESIAN_POINT('',(11.,-20.,-1.));
#614 = DIRECTION('',(0.,1.,0.));
#615 = DIRECTION('',(0.,0.,-1.));
#616 = ADVANCED_FACE('',(#617),#625,.T.);
#617 = FACE_BOUND('',#618,.T.);
#618 = EDGE_LOOP('',(#619,#620,#621,#622,#623,#624));
#619 = ORIENTED_EDGE('',*,*,#343,.T.);
#620 = ORIENTED_EDGE('',*,*,#551,.T.);
#621 = ORIENTED_EDGE('',*,*,#512,.T.);
#622 = ORIENTED_EDGE('',*,*,#504,.F.);
#623 = ORIENTED_EDGE('',*,*,#587,.F.);
#624 = ORIENTED_EDGE('',*,*,#351,.F.);
#625 = PLANE('',#626);
#626 = AXIS2_PLACEMENT_3D('',#627,#628,#629);
#627 = CARTESIAN_POINT('',(0.,-20.000000766,-1.));
#628 = DIRECTION('',(0.,-1.,1.2E-16));
#629 = DIRECTION('',(0.,-1.2E-16,-1.));
#630 = ADVANCED_FACE('',(#631),#637,.T.);
#631 = FACE_BOUND('',#632,.F.);
#632 = EDGE_LOOP('',(#633,#634,#635,#636));
#633 = ORIENTED_EDGE('',*,*,#447,.T.);
#634 = ORIENTED_EDGE('',*,*,#529,.T.);
#635 = ORIENTED_EDGE('',*,*,#487,.F.);
#636 = ORIENTED_EDGE('',*,*,#594,.F.);
#637 = CYLINDRICAL_SURFACE('',#638,1.);
#638 = AXIS2_PLACEMENT_3D('',#639,#640,#641);
#639 = CARTESIAN_POINT('',(-11.,32.,-1.));
#640 = DIRECTION('',(0.,-1.,0.));
#641 = DIRECTION('',(0.,0.,-1.));
#642 = ADVANCED_FACE('',(#643),#661,.T.);
#643 = FACE_BOUND('',#644,.F.);
#644 = EDGE_LOOP('',(#645,#646,#653,#660));
#645 = ORIENTED_EDGE('',*,*,#562,.F.);
#646 = ORIENTED_EDGE('',*,*,#647,.F.);
#647 = EDGE_CURVE('',#648,#563,#650,.T.);
#648 = VERTEX_POINT('',#649);
#649 = CARTESIAN_POINT('',(1.15,26.974312,9.));
#650 = B_SPLINE_CURVE_WITH_KNOTS('',1,(#651,#652),.UNSPECIFIED.,.F.,.F.,
  (2,2),(-9.,0.),.PIECEWISE_BEZIER_KNOTS.);
#651 = CARTESIAN_POINT('',(1.15,26.974312,9.));
#652 = CARTESIAN_POINT('',(1.15,26.974312,0.));
#653 = ORIENTED_EDGE('',*,*,#654,.T.);
#654 = EDGE_CURVE('',#648,#648,#655,.T.);
#655 = CIRCLE('',#656,1.15);
#656 = AXIS2_PLACEMENT_3D('',#657,#658,#659);
#657 = CARTESIAN_POINT('',(0.,26.974312,9.));
#658 = DIRECTION('',(0.,0.,1.));
#659 = DIRECTION('',(1.,0.,0.));
#660 = ORIENTED_EDGE('',*,*,#647,.T.);
#661 = CYLINDRICAL_SURFACE('',#662,1.15);
#662 = AXIS2_PLACEMENT_3D('',#663,#664,#665);
#663 = CARTESIAN_POINT('',(0.,26.974312,0.));
#664 = DIRECTION('',(0.,0.,-1.));
#665 = DIRECTION('',(1.,0.,0.));
#666 = ADVANCED_FACE('',(#667,#670),#681,.T.);
#667 = FACE_BOUND('',#668,.T.);
#668 = EDGE_LOOP('',(#669));
#669 = ORIENTED_EDGE('',*,*,#654,.T.);
#670 = FACE_BOUND('',#671,.F.);
#671 = EDGE_LOOP('',(#672));
#672 = ORIENTED_EDGE('',*,*,#673,.T.);
#673 = EDGE_CURVE('',#674,#674,#676,.T.);
#674 = VERTEX_POINT('',#675);
#675 = CARTESIAN_POINT('',(0.75,26.974312,9.));
#676 = CIRCLE('',#677,0.75);
#677 = AXIS2_PLACEMENT_3D('',#678,#679,#680);
#678 = CARTESIAN_POINT('',(0.,26.974312,9.));
#679 = DIRECTION('',(0.,0.,1.));
#680 = DIRECTION('',(1.,0.,0.));
#681 = PLANE('',#682);
#682 = AXIS2_PLACEMENT_3D('',#683,#684,#685);
#683 = CARTESIAN_POINT('',(-9.E-17,26.974312,9.));
#684 = DIRECTION('',(0.,1.2E-16,1.));
#685 = DIRECTION('',(1.,0.,0.));
#686 = ADVANCED_FACE('',(#687),#705,.F.);
#687 = FACE_BOUND('',#688,.T.);
#688 = EDGE_LOOP('',(#689,#698,#703,#704));
#689 = ORIENTED_EDGE('',*,*,#690,.F.);
#690 = EDGE_CURVE('',#691,#691,#693,.T.);
#691 = VERTEX_POINT('',#692);
#692 = CARTESIAN_POINT('',(0.75,26.974312,-3.996802888651E-15));
#693 = CIRCLE('',#694,0.75);
#694 = AXIS2_PLACEMENT_3D('',#695,#696,#697);
#695 = CARTESIAN_POINT('',(0.,26.974312,0.));
#696 = DIRECTION('',(0.,0.,1.));
#697 = DIRECTION('',(1.,0.,0.));
#698 = ORIENTED_EDGE('',*,*,#699,.F.);
#699 = EDGE_CURVE('',#674,#691,#700,.T.);
#700 = B_SPLINE_CURVE_WITH_KNOTS('',1,(#701,#702),.UNSPECIFIED.,.F.,.F.,
  (2,2),(-2.,7.),.PIECEWISE_BEZIER_KNOTS.);
#701 = CARTESIAN_POINT('',(0.75,26.974312,9.));
#702 = CARTESIAN_POINT('',(0.75,26.974312,2.2E-16));
#703 = ORIENTED_EDGE('',*,*,#673,.T.);
#704 = ORIENTED_EDGE('',*,*,#699,.T.);
#705 = CYLINDRICAL_SURFACE('',#706,0.75);
#706 = AXIS2_PLACEMENT_3D('',#707,#708,#709);
#707 = CARTESIAN_POINT('',(0.,26.974312,7.));
#708 = DIRECTION('',(0.,0.,-1.));
#709 = DIRECTION('',(1.,0.,0.));
#710 = ADVANCED_FACE('',(#711),#714,.T.);
#711 = FACE_BOUND('',#712,.T.);
#712 = EDGE_LOOP('',(#713));
#713 = ORIENTED_EDGE('',*,*,#690,.T.);
#714 = PLANE('',#715);
#715 = AXIS2_PLACEMENT_3D('',#716,#717,#718);
#716 = CARTESIAN_POINT('',(0.,3.1459215,0.));
#717 = DIRECTION('',(0.,1.2E-16,1.));
#718 = DIRECTION('',(1.,0.,0.));
#719 = ( GEOMETRIC_REPRESENTATION_CONTEXT(3) 
GLOBAL_UNCERTAINTY_ASSIGNED_CONTEXT((#723)) GLOBAL_UNIT_ASSIGNED_CONTEXT
((#720,#721,#722)) REPRESENTATION_CONTEXT('Context #1',
  '3D Context with UNIT and UNCERTAINTY') );
#720 = ( LENGTH_UNIT() NAMED_UNIT(*) SI_UNIT(.MILLI.,.METRE.) );
#721 = ( NAMED_UNIT(*) PLANE_ANGLE_UNIT() SI_UNIT($,.RADIAN.) );
#722 = ( NAMED_UNIT(*) SI_UNIT($,.STERADIAN.) SOLID_ANGLE_UNIT() );
#723 = UNCERTAINTY_MEASURE_WITH_UNIT(LENGTH_MEASURE(2.E-05),#720,
  'distance_accuracy_value','confusion accuracy');
#724 = PRODUCT_RELATED_PRODUCT_CATEGORY('part',$,(#7));
#725 = MECHANICAL_DESIGN_GEOMETRIC_PRESENTATION_REPRESENTATION('',(#726)
  ,#719);
#726 = STYLED_ITEM('color',(#727),#15);
#727 = PRESENTATION_STYLE_ASSIGNMENT((#728,#734));
#728 = SURFACE_STYLE_USAGE(.BOTH.,#729);
#729 = SURFACE_SIDE_STYLE('',(#730));
#730 = SURFACE_STYLE_FILL_AREA(#731);
#731 = FILL_AREA_STYLE('',(#732));
#732 = FILL_AREA_STYLE_COLOUR('',#733);
#733 = COLOUR_RGB('',0.447058818107,0.474509808674,0.501960817233);
#734 = CURVE_STYLE('',#735,POSITIVE_LENGTH_MEASURE(0.1),#736);
#735 = DRAUGHTING_PRE_DEFINED_CURVE_FONT('continuous');
#736 = COLOUR_RGB('',9.803921802644E-02,9.803921802644E-02,
  9.803921802644E-02);
ENDSEC;
END-ISO-10303-21;
