ISO-10303-21;
HEADER;
FILE_DESCRIPTION(('FreeCAD Model'),'2;1');
FILE_NAME('Open CASCADE Shape Model','2026-08-27T00:58:17',('Author'),(
    ''),'Open CASCADE STEP processor 7.8','FreeCAD','Unknown');
FILE_SCHEMA(('AUTOMOTIVE_DESIGN { 1 0 10303 214 1 1 1 1 }'));
ENDSEC;
DATA;
#1 = APPLICATION_PROTOCOL_DEFINITION('international standard',
  'automotive_design',2000,#2);
#2 = APPLICATION_CONTEXT(
  'core data for automotive mechanical design processes');
#3 = SHAPE_DEFINITION_REPRESENTATION(#4,#10);
#4 = PRODUCT_DEFINITION_SHAPE('','',#5);
#5 = PRODUCT_DEFINITION('design','',#6,#9);
#6 = PRODUCT_DEFINITION_FORMATION('','',#7);
#7 = PRODUCT('Lid','Lid','',(#8));
#8 = PRODUCT_CONTEXT('',#2,'mechanical');
#9 = PRODUCT_DEFINITION_CONTEXT('part definition',#2,'design');
#10 = ADVANCED_BREP_SHAPE_REPRESENTATION('',(#11,#15),#1389);
#11 = AXIS2_PLACEMENT_3D('',#12,#13,#14);
#12 = CARTESIAN_POINT('',(0.,0.,0.));
#13 = DIRECTION('',(0.,0.,1.));
#14 = DIRECTION('',(1.,0.,-0.));
#15 = MANIFOLD_SOLID_BREP('',#16);
#16 = CLOSED_SHELL('',(#17,#107,#138,#162,#186,#210,#234,#251,#300,#324,
    #348,#383,#442,#655,#667,#679,#710,#741,#765,#782,#807,#824,#841,
    #853,#888,#912,#940,#964,#992,#1016,#1044,#1068,#1096,#1124,#1148,
    #1176,#1200,#1228,#1252,#1280,#1308,#1336,#1353,#1362));
#17 = ADVANCED_FACE('',(#18,#68),#102,.T.);
#18 = FACE_BOUND('',#19,.T.);
#19 = EDGE_LOOP('',(#20,#30,#38,#46,#54,#62));
#20 = ORIENTED_EDGE('',*,*,#21,.F.);
#21 = EDGE_CURVE('',#22,#24,#26,.T.);
#22 = VERTEX_POINT('',#23);
#23 = CARTESIAN_POINT('',(9.,-19.5,7.));
#24 = VERTEX_POINT('',#25);
#25 = CARTESIAN_POINT('',(-9.,-19.5,7.));
#26 = LINE('',#27,#28);
#27 = CARTESIAN_POINT('',(-5.,-19.5,7.));
#28 = VECTOR('',#29,1.);
#29 = DIRECTION('',(-1.,0.,0.));
#30 = ORIENTED_EDGE('',*,*,#31,.F.);
#31 = EDGE_CURVE('',#32,#22,#34,.T.);
#32 = VERTEX_POINT('',#33);
#33 = CARTESIAN_POINT('',(10.,-18.5,7.));
#34 = LINE('',#35,#36);
#35 = CARTESIAN_POINT('',(13.375,-15.125,7.));
#36 = VECTOR('',#37,1.);
#37 = DIRECTION('',(-0.707106781187,-0.707106781187,0.));
#38 = ORIENTED_EDGE('',*,*,#39,.F.);
#39 = EDGE_CURVE('',#40,#32,#42,.T.);
#40 = VERTEX_POINT('',#41);
#41 = CARTESIAN_POINT('',(10.,30.,7.));
#42 = LINE('',#43,#44);
#43 = CARTESIAN_POINT('',(10.,-6.75,7.));
#44 = VECTOR('',#45,1.);
#45 = DIRECTION('',(0.,-1.,0.));
#46 = ORIENTED_EDGE('',*,*,#47,.F.);
#47 = EDGE_CURVE('',#48,#40,#50,.T.);
#48 = VERTEX_POINT('',#49);
#49 = CARTESIAN_POINT('',(-10.,30.,7.));
#50 = LINE('',#51,#52);
#51 = CARTESIAN_POINT('',(5.,30.,7.));
#52 = VECTOR('',#53,1.);
#53 = DIRECTION('',(1.,0.,0.));
#54 = ORIENTED_EDGE('',*,*,#55,.F.);
#55 = EDGE_CURVE('',#56,#48,#58,.T.);
#56 = VERTEX_POINT('',#57);
#57 = CARTESIAN_POINT('',(-10.,-18.5,7.));
#58 = LINE('',#59,#60);
#59 = CARTESIAN_POINT('',(-10.,18.,7.));
#60 = VECTOR('',#61,1.);
#61 = DIRECTION('',(0.,1.,0.));
#62 = ORIENTED_EDGE('',*,*,#63,.F.);
#63 = EDGE_CURVE('',#24,#56,#64,.T.);
#64 = LINE('',#65,#66);
#65 = CARTESIAN_POINT('',(-13.375,-15.125,7.));
#66 = VECTOR('',#67,1.);
#67 = DIRECTION('',(-0.707106781187,0.707106781187,0.));
#68 = FACE_BOUND('',#69,.T.);
#69 = EDGE_LOOP('',(#70,#80,#88,#96));
#70 = ORIENTED_EDGE('',*,*,#71,.T.);
#71 = EDGE_CURVE('',#72,#74,#76,.T.);
#72 = VERTEX_POINT('',#73);
#73 = CARTESIAN_POINT('',(12.,-20.,7.));
#74 = VERTEX_POINT('',#75);
#75 = CARTESIAN_POINT('',(-12.,-20.,7.));
#76 = LINE('',#77,#78);
#77 = CARTESIAN_POINT('',(-10.,-20.,7.));
#78 = VECTOR('',#79,1.);
#79 = DIRECTION('',(-1.,-0.,-0.));
#80 = ORIENTED_EDGE('',*,*,#81,.F.);
#81 = EDGE_CURVE('',#82,#74,#84,.T.);
#82 = VERTEX_POINT('',#83);
#83 = CARTESIAN_POINT('',(-12.,32.,7.));
#84 = LINE('',#85,#86);
#85 = CARTESIAN_POINT('',(-12.,30.,7.));
#86 = VECTOR('',#87,1.);
#87 = DIRECTION('',(0.,-1.,0.));
#88 = ORIENTED_EDGE('',*,*,#89,.F.);
#89 = EDGE_CURVE('',#90,#82,#92,.T.);
#90 = VERTEX_POINT('',#91);
#91 = CARTESIAN_POINT('',(12.,32.,7.));
#92 = LINE('',#93,#94);
#93 = CARTESIAN_POINT('',(-10.,32.,7.));
#94 = VECTOR('',#95,1.);
#95 = DIRECTION('',(-1.,-0.,-0.));
#96 = ORIENTED_EDGE('',*,*,#97,.F.);
#97 = EDGE_CURVE('',#72,#90,#98,.T.);
#98 = LINE('',#99,#100);
#99 = CARTESIAN_POINT('',(12.,-20.,7.));
#100 = VECTOR('',#101,1.);
#101 = DIRECTION('',(0.,1.,0.));
#102 = PLANE('',#103);
#103 = AXIS2_PLACEMENT_3D('',#104,#105,#106);
#104 = CARTESIAN_POINT('',(0.,6.,7.));
#105 = DIRECTION('',(-0.,-0.,-1.));
#106 = DIRECTION('',(-1.,0.,0.));
#107 = ADVANCED_FACE('',(#108),#133,.T.);
#108 = FACE_BOUND('',#109,.T.);
#109 = EDGE_LOOP('',(#110,#111,#119,#127));
#110 = ORIENTED_EDGE('',*,*,#21,.T.);
#111 = ORIENTED_EDGE('',*,*,#112,.T.);
#112 = EDGE_CURVE('',#24,#113,#115,.T.);
#113 = VERTEX_POINT('',#114);
#114 = CARTESIAN_POINT('',(-9.,-19.5,6.5));
#115 = LINE('',#116,#117);
#116 = CARTESIAN_POINT('',(-9.,-19.5,7.));
#117 = VECTOR('',#118,1.);
#118 = DIRECTION('',(-0.,-0.,-1.));
#119 = ORIENTED_EDGE('',*,*,#120,.T.);
#120 = EDGE_CURVE('',#113,#121,#123,.T.);
#121 = VERTEX_POINT('',#122);
#122 = CARTESIAN_POINT('',(9.,-19.5,6.5));
#123 = LINE('',#124,#125);
#124 = CARTESIAN_POINT('',(-10.,-19.5,6.5));
#125 = VECTOR('',#126,1.);
#126 = DIRECTION('',(1.,0.,0.));
#127 = ORIENTED_EDGE('',*,*,#128,.F.);
#128 = EDGE_CURVE('',#22,#121,#129,.T.);
#129 = LINE('',#130,#131);
#130 = CARTESIAN_POINT('',(9.,-19.5,7.));
#131 = VECTOR('',#132,1.);
#132 = DIRECTION('',(-0.,-0.,-1.));
#133 = PLANE('',#134);
#134 = AXIS2_PLACEMENT_3D('',#135,#136,#137);
#135 = CARTESIAN_POINT('',(-10.,-19.5,9.));
#136 = DIRECTION('',(0.,-1.,0.));
#137 = DIRECTION('',(1.,0.,0.));
#138 = ADVANCED_FACE('',(#139),#157,.T.);
#139 = FACE_BOUND('',#140,.F.);
#140 = EDGE_LOOP('',(#141,#142,#143,#151));
#141 = ORIENTED_EDGE('',*,*,#63,.F.);
#142 = ORIENTED_EDGE('',*,*,#112,.T.);
#143 = ORIENTED_EDGE('',*,*,#144,.T.);
#144 = EDGE_CURVE('',#113,#145,#147,.T.);
#145 = VERTEX_POINT('',#146);
#146 = CARTESIAN_POINT('',(-10.,-18.5,6.5));
#147 = LINE('',#148,#149);
#148 = CARTESIAN_POINT('',(-13.1875,-15.3125,6.5));
#149 = VECTOR('',#150,1.);
#150 = DIRECTION('',(-0.707106781187,0.707106781187,0.));
#151 = ORIENTED_EDGE('',*,*,#152,.F.);
#152 = EDGE_CURVE('',#56,#145,#153,.T.);
#153 = LINE('',#154,#155);
#154 = CARTESIAN_POINT('',(-10.,-18.5,7.));
#155 = VECTOR('',#156,1.);
#156 = DIRECTION('',(-0.,-0.,-1.));
#157 = PLANE('',#158);
#158 = AXIS2_PLACEMENT_3D('',#159,#160,#161);
#159 = CARTESIAN_POINT('',(-9.5,-19.,7.));
#160 = DIRECTION('',(-0.707106781187,-0.707106781187,0.));
#161 = DIRECTION('',(0.,-0.,1.));
#162 = ADVANCED_FACE('',(#163),#181,.T.);
#163 = FACE_BOUND('',#164,.F.);
#164 = EDGE_LOOP('',(#165,#166,#174,#180));
#165 = ORIENTED_EDGE('',*,*,#31,.F.);
#166 = ORIENTED_EDGE('',*,*,#167,.T.);
#167 = EDGE_CURVE('',#32,#168,#170,.T.);
#168 = VERTEX_POINT('',#169);
#169 = CARTESIAN_POINT('',(10.,-18.5,6.5));
#170 = LINE('',#171,#172);
#171 = CARTESIAN_POINT('',(10.,-18.5,7.));
#172 = VECTOR('',#173,1.);
#173 = DIRECTION('',(-0.,-0.,-1.));
#174 = ORIENTED_EDGE('',*,*,#175,.T.);
#175 = EDGE_CURVE('',#168,#121,#176,.T.);
#176 = LINE('',#177,#178);
#177 = CARTESIAN_POINT('',(13.1875,-15.3125,6.5));
#178 = VECTOR('',#179,1.);
#179 = DIRECTION('',(-0.707106781187,-0.707106781187,0.));
#180 = ORIENTED_EDGE('',*,*,#128,.F.);
#181 = PLANE('',#182);
#182 = AXIS2_PLACEMENT_3D('',#183,#184,#185);
#183 = CARTESIAN_POINT('',(9.5,-19.,7.));
#184 = DIRECTION('',(0.707106781187,-0.707106781187,0.));
#185 = DIRECTION('',(0.,0.,1.));
#186 = ADVANCED_FACE('',(#187),#205,.T.);
#187 = FACE_BOUND('',#188,.T.);
#188 = EDGE_LOOP('',(#189,#190,#198,#204));
#189 = ORIENTED_EDGE('',*,*,#55,.T.);
#190 = ORIENTED_EDGE('',*,*,#191,.T.);
#191 = EDGE_CURVE('',#48,#192,#194,.T.);
#192 = VERTEX_POINT('',#193);
#193 = CARTESIAN_POINT('',(-10.,30.,6.5));
#194 = LINE('',#195,#196);
#195 = CARTESIAN_POINT('',(-10.,30.,9.));
#196 = VECTOR('',#197,1.);
#197 = DIRECTION('',(-0.,-0.,-1.));
#198 = ORIENTED_EDGE('',*,*,#199,.T.);
#199 = EDGE_CURVE('',#192,#145,#200,.T.);
#200 = LINE('',#201,#202);
#201 = CARTESIAN_POINT('',(-10.,30.,6.5));
#202 = VECTOR('',#203,1.);
#203 = DIRECTION('',(0.,-1.,0.));
#204 = ORIENTED_EDGE('',*,*,#152,.F.);
#205 = PLANE('',#206);
#206 = AXIS2_PLACEMENT_3D('',#207,#208,#209);
#207 = CARTESIAN_POINT('',(-10.,30.,9.));
#208 = DIRECTION('',(-1.,0.,0.));
#209 = DIRECTION('',(0.,-1.,0.));
#210 = ADVANCED_FACE('',(#211),#229,.T.);
#211 = FACE_BOUND('',#212,.T.);
#212 = EDGE_LOOP('',(#213,#214,#215,#223));
#213 = ORIENTED_EDGE('',*,*,#39,.T.);
#214 = ORIENTED_EDGE('',*,*,#167,.T.);
#215 = ORIENTED_EDGE('',*,*,#216,.T.);
#216 = EDGE_CURVE('',#168,#217,#219,.T.);
#217 = VERTEX_POINT('',#218);
#218 = CARTESIAN_POINT('',(10.,30.,6.5));
#219 = LINE('',#220,#221);
#220 = CARTESIAN_POINT('',(10.,-19.5,6.5));
#221 = VECTOR('',#222,1.);
#222 = DIRECTION('',(0.,1.,0.));
#223 = ORIENTED_EDGE('',*,*,#224,.F.);
#224 = EDGE_CURVE('',#40,#217,#225,.T.);
#225 = LINE('',#226,#227);
#226 = CARTESIAN_POINT('',(10.,30.,9.));
#227 = VECTOR('',#228,1.);
#228 = DIRECTION('',(-0.,-0.,-1.));
#229 = PLANE('',#230);
#230 = AXIS2_PLACEMENT_3D('',#231,#232,#233);
#231 = CARTESIAN_POINT('',(10.,-19.5,9.));
#232 = DIRECTION('',(1.,0.,0.));
#233 = DIRECTION('',(0.,1.,0.));
#234 = ADVANCED_FACE('',(#235),#246,.T.);
#235 = FACE_BOUND('',#236,.T.);
#236 = EDGE_LOOP('',(#237,#238,#239,#245));
#237 = ORIENTED_EDGE('',*,*,#47,.T.);
#238 = ORIENTED_EDGE('',*,*,#224,.T.);
#239 = ORIENTED_EDGE('',*,*,#240,.T.);
#240 = EDGE_CURVE('',#217,#192,#241,.T.);
#241 = LINE('',#242,#243);
#242 = CARTESIAN_POINT('',(10.,30.,6.5));
#243 = VECTOR('',#244,1.);
#244 = DIRECTION('',(-1.,0.,0.));
#245 = ORIENTED_EDGE('',*,*,#191,.F.);
#246 = PLANE('',#247);
#247 = AXIS2_PLACEMENT_3D('',#248,#249,#250);
#248 = CARTESIAN_POINT('',(10.,30.,9.));
#249 = DIRECTION('',(0.,1.,0.));
#250 = DIRECTION('',(-1.,0.,0.));
#251 = ADVANCED_FACE('',(#252),#295,.T.);
#252 = FACE_BOUND('',#253,.T.);
#253 = EDGE_LOOP('',(#254,#264,#273,#279,#280,#288));
#254 = ORIENTED_EDGE('',*,*,#255,.F.);
#255 = EDGE_CURVE('',#256,#258,#260,.T.);
#256 = VERTEX_POINT('',#257);
#257 = CARTESIAN_POINT('',(-11.,-20.,9.));
#258 = VERTEX_POINT('',#259);
#259 = CARTESIAN_POINT('',(11.,-20.,9.));
#260 = LINE('',#261,#262);
#261 = CARTESIAN_POINT('',(10.,-20.,9.));
#262 = VECTOR('',#263,1.);
#263 = DIRECTION('',(1.,0.,0.));
#264 = ORIENTED_EDGE('',*,*,#265,.T.);
#265 = EDGE_CURVE('',#256,#266,#268,.T.);
#266 = VERTEX_POINT('',#267);
#267 = CARTESIAN_POINT('',(-12.,-20.,8.));
#268 = CIRCLE('',#269,1.);
#269 = AXIS2_PLACEMENT_3D('',#270,#271,#272);
#270 = CARTESIAN_POINT('',(-11.,-20.,8.));
#271 = DIRECTION('',(0.,-1.,0.));
#272 = DIRECTION('',(0.,0.,1.));
#273 = ORIENTED_EDGE('',*,*,#274,.F.);
#274 = EDGE_CURVE('',#74,#266,#275,.T.);
#275 = LINE('',#276,#277);
#276 = CARTESIAN_POINT('',(-12.,-20.,7.));
#277 = VECTOR('',#278,1.);
#278 = DIRECTION('',(0.,0.,1.));
#279 = ORIENTED_EDGE('',*,*,#71,.F.);
#280 = ORIENTED_EDGE('',*,*,#281,.T.);
#281 = EDGE_CURVE('',#72,#282,#284,.T.);
#282 = VERTEX_POINT('',#283);
#283 = CARTESIAN_POINT('',(12.,-20.,8.));
#284 = LINE('',#285,#286);
#285 = CARTESIAN_POINT('',(12.,-20.,7.));
#286 = VECTOR('',#287,1.);
#287 = DIRECTION('',(0.,0.,1.));
#288 = ORIENTED_EDGE('',*,*,#289,.F.);
#289 = EDGE_CURVE('',#258,#282,#290,.T.);
#290 = CIRCLE('',#291,1.);
#291 = AXIS2_PLACEMENT_3D('',#292,#293,#294);
#292 = CARTESIAN_POINT('',(11.,-20.,8.));
#293 = DIRECTION('',(0.,1.,0.));
#294 = DIRECTION('',(0.,0.,1.));
#295 = PLANE('',#296);
#296 = AXIS2_PLACEMENT_3D('',#297,#298,#299);
#297 = CARTESIAN_POINT('',(0.,-20.,8.));
#298 = DIRECTION('',(-0.,-1.,-0.));
#299 = DIRECTION('',(0.,0.,-1.));
#300 = ADVANCED_FACE('',(#301),#319,.T.);
#301 = FACE_BOUND('',#302,.T.);
#302 = EDGE_LOOP('',(#303,#304,#305,#313));
#303 = ORIENTED_EDGE('',*,*,#281,.F.);
#304 = ORIENTED_EDGE('',*,*,#97,.T.);
#305 = ORIENTED_EDGE('',*,*,#306,.T.);
#306 = EDGE_CURVE('',#90,#307,#309,.T.);
#307 = VERTEX_POINT('',#308);
#308 = CARTESIAN_POINT('',(12.,32.,8.));
#309 = LINE('',#310,#311);
#310 = CARTESIAN_POINT('',(12.,32.,7.));
#311 = VECTOR('',#312,1.);
#312 = DIRECTION('',(0.,0.,1.));
#313 = ORIENTED_EDGE('',*,*,#314,.F.);
#314 = EDGE_CURVE('',#282,#307,#315,.T.);
#315 = LINE('',#316,#317);
#316 = CARTESIAN_POINT('',(12.,-20.,8.));
#317 = VECTOR('',#318,1.);
#318 = DIRECTION('',(0.,1.,0.));
#319 = PLANE('',#320);
#320 = AXIS2_PLACEMENT_3D('',#321,#322,#323);
#321 = CARTESIAN_POINT('',(12.,6.,8.));
#322 = DIRECTION('',(1.,0.,0.));
#323 = DIRECTION('',(0.,0.,1.));
#324 = ADVANCED_FACE('',(#325),#343,.T.);
#325 = FACE_BOUND('',#326,.T.);
#326 = EDGE_LOOP('',(#327,#328,#336,#342));
#327 = ORIENTED_EDGE('',*,*,#274,.T.);
#328 = ORIENTED_EDGE('',*,*,#329,.T.);
#329 = EDGE_CURVE('',#266,#330,#332,.T.);
#330 = VERTEX_POINT('',#331);
#331 = CARTESIAN_POINT('',(-12.,32.,8.));
#332 = LINE('',#333,#334);
#333 = CARTESIAN_POINT('',(-12.,-20.,8.));
#334 = VECTOR('',#335,1.);
#335 = DIRECTION('',(0.,1.,0.));
#336 = ORIENTED_EDGE('',*,*,#337,.F.);
#337 = EDGE_CURVE('',#82,#330,#338,.T.);
#338 = LINE('',#339,#340);
#339 = CARTESIAN_POINT('',(-12.,32.,7.));
#340 = VECTOR('',#341,1.);
#341 = DIRECTION('',(0.,0.,1.));
#342 = ORIENTED_EDGE('',*,*,#81,.T.);
#343 = PLANE('',#344);
#344 = AXIS2_PLACEMENT_3D('',#345,#346,#347);
#345 = CARTESIAN_POINT('',(-12.,6.,8.));
#346 = DIRECTION('',(-1.,-0.,-0.));
#347 = DIRECTION('',(0.,0.,-1.));
#348 = ADVANCED_FACE('',(#349),#378,.T.);
#349 = FACE_BOUND('',#350,.T.);
#350 = EDGE_LOOP('',(#351,#361,#368,#369,#370,#371));
#351 = ORIENTED_EDGE('',*,*,#352,.T.);
#352 = EDGE_CURVE('',#353,#355,#357,.T.);
#353 = VERTEX_POINT('',#354);
#354 = CARTESIAN_POINT('',(-11.,32.,9.));
#355 = VERTEX_POINT('',#356);
#356 = CARTESIAN_POINT('',(11.,32.,9.));
#357 = LINE('',#358,#359);
#358 = CARTESIAN_POINT('',(10.,32.,9.));
#359 = VECTOR('',#360,1.);
#360 = DIRECTION('',(1.,0.,0.));
#361 = ORIENTED_EDGE('',*,*,#362,.T.);
#362 = EDGE_CURVE('',#355,#307,#363,.T.);
#363 = CIRCLE('',#364,1.);
#364 = AXIS2_PLACEMENT_3D('',#365,#366,#367);
#365 = CARTESIAN_POINT('',(11.,32.,8.));
#366 = DIRECTION('',(0.,1.,0.));
#367 = DIRECTION('',(0.,0.,1.));
#368 = ORIENTED_EDGE('',*,*,#306,.F.);
#369 = ORIENTED_EDGE('',*,*,#89,.T.);
#370 = ORIENTED_EDGE('',*,*,#337,.T.);
#371 = ORIENTED_EDGE('',*,*,#372,.F.);
#372 = EDGE_CURVE('',#353,#330,#373,.T.);
#373 = CIRCLE('',#374,1.);
#374 = AXIS2_PLACEMENT_3D('',#375,#376,#377);
#375 = CARTESIAN_POINT('',(-11.,32.,8.));
#376 = DIRECTION('',(0.,-1.,0.));
#377 = DIRECTION('',(0.,0.,1.));
#378 = PLANE('',#379);
#379 = AXIS2_PLACEMENT_3D('',#380,#381,#382);
#380 = CARTESIAN_POINT('',(0.,32.,8.));
#381 = DIRECTION('',(0.,1.,0.));
#382 = DIRECTION('',(0.,0.,1.));
#383 = ADVANCED_FACE('',(#384,#392,#426),#437,.F.);
#384 = FACE_BOUND('',#385,.F.);
#385 = EDGE_LOOP('',(#386,#387,#388,#389,#390,#391));
#386 = ORIENTED_EDGE('',*,*,#120,.T.);
#387 = ORIENTED_EDGE('',*,*,#175,.F.);
#388 = ORIENTED_EDGE('',*,*,#216,.T.);
#389 = ORIENTED_EDGE('',*,*,#240,.T.);
#390 = ORIENTED_EDGE('',*,*,#199,.T.);
#391 = ORIENTED_EDGE('',*,*,#144,.F.);
#392 = FACE_BOUND('',#393,.F.);
#393 = EDGE_LOOP('',(#394,#404,#412,#420));
#394 = ORIENTED_EDGE('',*,*,#395,.F.);
#395 = EDGE_CURVE('',#396,#398,#400,.T.);
#396 = VERTEX_POINT('',#397);
#397 = CARTESIAN_POINT('',(-6.074028,15.576239,6.5));
#398 = VERTEX_POINT('',#399);
#399 = CARTESIAN_POINT('',(-6.074028,-19.021456,6.5));
#400 = LINE('',#401,#402);
#401 = CARTESIAN_POINT('',(-6.074028,10.4131195,6.5));
#402 = VECTOR('',#403,1.);
#403 = DIRECTION('',(0.,-1.,0.));
#404 = ORIENTED_EDGE('',*,*,#405,.F.);
#405 = EDGE_CURVE('',#406,#396,#408,.T.);
#406 = VERTEX_POINT('',#407);
#407 = CARTESIAN_POINT('',(6.101273,15.576239,6.5));
#408 = LINE('',#409,#410);
#409 = CARTESIAN_POINT('',(3.0506365,15.576239,6.5));
#410 = VECTOR('',#411,1.);
#411 = DIRECTION('',(-1.,0.,0.));
#412 = ORIENTED_EDGE('',*,*,#413,.F.);
#413 = EDGE_CURVE('',#414,#406,#416,.T.);
#414 = VERTEX_POINT('',#415);
#415 = CARTESIAN_POINT('',(6.101273,-19.021456,6.5));
#416 = LINE('',#417,#418);
#417 = CARTESIAN_POINT('',(6.101273,-6.885728,6.5));
#418 = VECTOR('',#419,1.);
#419 = DIRECTION('',(0.,1.,0.));
#420 = ORIENTED_EDGE('',*,*,#421,.F.);
#421 = EDGE_CURVE('',#398,#414,#422,.T.);
#422 = LINE('',#423,#424);
#423 = CARTESIAN_POINT('',(-3.037014,-19.021456,6.5));
#424 = VECTOR('',#425,1.);
#425 = DIRECTION('',(1.,0.,0.));
#426 = FACE_BOUND('',#427,.F.);
#427 = EDGE_LOOP('',(#428));
#428 = ORIENTED_EDGE('',*,*,#429,.F.);
#429 = EDGE_CURVE('',#430,#430,#432,.T.);
#430 = VERTEX_POINT('',#431);
#431 = CARTESIAN_POINT('',(0.7,26.97,6.5));
#432 = CIRCLE('',#433,0.7);
#433 = AXIS2_PLACEMENT_3D('',#434,#435,#436);
#434 = CARTESIAN_POINT('',(0.,26.97,6.5));
#435 = DIRECTION('',(0.,0.,1.));
#436 = DIRECTION('',(1.,0.,0.));
#437 = PLANE('',#438);
#438 = AXIS2_PLACEMENT_3D('',#439,#440,#441);
#439 = CARTESIAN_POINT('',(0.,5.25,6.5));
#440 = DIRECTION('',(0.,0.,1.));
#441 = DIRECTION('',(1.,0.,0.));
#442 = ADVANCED_FACE('',(#443,#459,#493),#650,.T.);
#443 = FACE_BOUND('',#444,.T.);
#444 = EDGE_LOOP('',(#445,#446,#452,#453));
#445 = ORIENTED_EDGE('',*,*,#255,.T.);
#446 = ORIENTED_EDGE('',*,*,#447,.T.);
#447 = EDGE_CURVE('',#258,#355,#448,.T.);
#448 = LINE('',#449,#450);
#449 = CARTESIAN_POINT('',(11.,-20.,9.));
#450 = VECTOR('',#451,1.);
#451 = DIRECTION('',(0.,1.,0.));
#452 = ORIENTED_EDGE('',*,*,#352,.F.);
#453 = ORIENTED_EDGE('',*,*,#454,.F.);
#454 = EDGE_CURVE('',#256,#353,#455,.T.);
#455 = LINE('',#456,#457);
#456 = CARTESIAN_POINT('',(-11.,-20.,9.));
#457 = VECTOR('',#458,1.);
#458 = DIRECTION('',(0.,1.,0.));
#459 = FACE_BOUND('',#460,.T.);
#460 = EDGE_LOOP('',(#461,#471,#479,#487));
#461 = ORIENTED_EDGE('',*,*,#462,.F.);
#462 = EDGE_CURVE('',#463,#465,#467,.T.);
#463 = VERTEX_POINT('',#464);
#464 = CARTESIAN_POINT('',(7.101273,-19.021456,9.));
#465 = VERTEX_POINT('',#466);
#466 = CARTESIAN_POINT('',(7.101273,16.576239,9.));
#467 = LINE('',#468,#469);
#468 = CARTESIAN_POINT('',(7.101273,-6.510728,9.));
#469 = VECTOR('',#470,1.);
#470 = DIRECTION('',(0.,1.,0.));
#471 = ORIENTED_EDGE('',*,*,#472,.F.);
#472 = EDGE_CURVE('',#473,#463,#475,.T.);
#473 = VERTEX_POINT('',#474);
#474 = CARTESIAN_POINT('',(-7.074028,-19.021456,9.));
#475 = LINE('',#476,#477);
#476 = CARTESIAN_POINT('',(-3.037014,-19.021456,9.));
#477 = VECTOR('',#478,1.);
#478 = DIRECTION('',(1.,0.,0.));
#479 = ORIENTED_EDGE('',*,*,#480,.F.);
#480 = EDGE_CURVE('',#481,#473,#483,.T.);
#481 = VERTEX_POINT('',#482);
#482 = CARTESIAN_POINT('',(-7.074028,16.576239,9.));
#483 = LINE('',#484,#485);
#484 = CARTESIAN_POINT('',(-7.074028,15.576239,9.));
#485 = VECTOR('',#486,1.);
#486 = DIRECTION('',(0.,-1.,0.));
#487 = ORIENTED_EDGE('',*,*,#488,.F.);
#488 = EDGE_CURVE('',#465,#481,#489,.T.);
#489 = LINE('',#490,#491);
#490 = CARTESIAN_POINT('',(-6.074028,16.576239,9.));
#491 = VECTOR('',#492,1.);
#492 = DIRECTION('',(-1.,0.,0.));
#493 = FACE_BOUND('',#494,.T.);
#494 = EDGE_LOOP('',(#495,#506,#513,#522,#531,#540,#547,#556,#563,#572,
    #579,#588,#597,#604,#613,#620,#629,#636,#645));
#495 = ORIENTED_EDGE('',*,*,#496,.F.);
#496 = EDGE_CURVE('',#497,#499,#501,.T.);
#497 = VERTEX_POINT('',#498);
#498 = CARTESIAN_POINT('',(-9.401756950556,23.212250371972,9.));
#499 = VERTEX_POINT('',#500);
#500 = CARTESIAN_POINT('',(-9.610427506962,22.965236587597,9.));
#501 = B_SPLINE_CURVE_WITH_KNOTS('',3,(#502,#503,#504,#505),
  .UNSPECIFIED.,.F.,.F.,(4,4),(0.,1.),.PIECEWISE_BEZIER_KNOTS.);
#502 = CARTESIAN_POINT('',(-9.401756950556,23.212250371972,9.));
#503 = CARTESIAN_POINT('',(-9.532809722275,23.212250371972,9.));
#504 = CARTESIAN_POINT('',(-9.632366648994,23.094352618847,9.));
#505 = CARTESIAN_POINT('',(-9.610427506962,22.965236587597,9.));
#506 = ORIENTED_EDGE('',*,*,#507,.F.);
#507 = EDGE_CURVE('',#508,#497,#510,.T.);
#508 = VERTEX_POINT('',#509);
#509 = CARTESIAN_POINT('',(-3.997912377744,23.212250371972,9.));
#510 = B_SPLINE_CURVE_WITH_KNOTS('',1,(#511,#512),.UNSPECIFIED.,.F.,.F.,
  (2,2),(0.,51.0602),.PIECEWISE_BEZIER_KNOTS.);
#511 = CARTESIAN_POINT('',(-3.997912377744,23.212250371972,9.));
#512 = CARTESIAN_POINT('',(-9.401756950556,23.212250371972,9.));
#513 = ORIENTED_EDGE('',*,*,#514,.F.);
#514 = EDGE_CURVE('',#515,#508,#517,.T.);
#515 = VERTEX_POINT('',#516);
#516 = CARTESIAN_POINT('',(-3.816133938994,23.585840200097,9.));
#517 = B_SPLINE_CURVE_WITH_KNOTS('',3,(#518,#519,#520,#521),
  .UNSPECIFIED.,.F.,.F.,(4,4),(0.,1.),.PIECEWISE_BEZIER_KNOTS.);
#518 = CARTESIAN_POINT('',(-3.816133938994,23.585840200097,9.));
#519 = CARTESIAN_POINT('',(-3.712523615556,23.434710943847,9.));
#520 = CARTESIAN_POINT('',(-3.814546446806,23.212250371972,9.));
#521 = CARTESIAN_POINT('',(-3.997912377744,23.212250371972,9.));
#522 = ORIENTED_EDGE('',*,*,#523,.F.);
#523 = EDGE_CURVE('',#524,#515,#526,.T.);
#524 = VERTEX_POINT('',#525);
#525 = CARTESIAN_POINT('',(-4.573558211494,26.28129610166,9.));
#526 = B_SPLINE_CURVE_WITH_KNOTS('',3,(#527,#528,#529,#530),
  .UNSPECIFIED.,.F.,.F.,(4,4),(0.,1.),.PIECEWISE_BEZIER_KNOTS.);
#527 = CARTESIAN_POINT('',(-4.573558211494,26.28129610166,9.));
#528 = CARTESIAN_POINT('',(-4.573558211494,25.302342586035,9.));
#529 = CARTESIAN_POINT('',(-4.337857954775,24.346989787597,9.));
#530 = CARTESIAN_POINT('',(-3.816133938994,23.585840200097,9.));
#531 = ORIENTED_EDGE('',*,*,#532,.F.);
#532 = EDGE_CURVE('',#533,#524,#535,.T.);
#533 = VERTEX_POINT('',#534);
#534 = CARTESIAN_POINT('',(-0.481342017119,29.657151154785,9.));
#535 = B_SPLINE_CURVE_WITH_KNOTS('',3,(#536,#537,#538,#539),
  .UNSPECIFIED.,.F.,.F.,(4,4),(0.,1.),.PIECEWISE_BEZIER_KNOTS.);
#536 = CARTESIAN_POINT('',(-0.481342017119,29.657151154785,9.));
#537 = CARTESIAN_POINT('',(-2.972223092119,29.657151154785,9.));
#538 = CARTESIAN_POINT('',(-4.573558211494,28.720319098535,9.));
#539 = CARTESIAN_POINT('',(-4.573558211494,26.28129610166,9.));
#540 = ORIENTED_EDGE('',*,*,#541,.F.);
#541 = EDGE_CURVE('',#542,#533,#544,.T.);
#542 = VERTEX_POINT('',#543);
#543 = CARTESIAN_POINT('',(7.184022759444,29.657151154785,9.));
#544 = B_SPLINE_CURVE_WITH_KNOTS('',1,(#545,#546),.UNSPECIFIED.,.F.,.F.,
  (2,2),(0.,72.429),.PIECEWISE_BEZIER_KNOTS.);
#545 = CARTESIAN_POINT('',(7.184022759444,29.657151154785,9.));
#546 = CARTESIAN_POINT('',(-0.481342017119,29.657151154785,9.));
#547 = ORIENTED_EDGE('',*,*,#548,.F.);
#548 = EDGE_CURVE('',#549,#542,#551,.T.);
#549 = VERTEX_POINT('',#550);
#550 = CARTESIAN_POINT('',(7.395688384444,29.445485529785,9.));
#551 = B_SPLINE_CURVE_WITH_KNOTS('',3,(#552,#553,#554,#555),
  .UNSPECIFIED.,.F.,.F.,(4,4),(0.,1.),.PIECEWISE_BEZIER_KNOTS.);
#552 = CARTESIAN_POINT('',(7.395688384444,29.445485529785,9.));
#553 = CARTESIAN_POINT('',(7.395688384444,29.562430787597,9.));
#554 = CARTESIAN_POINT('',(7.300862184444,29.657151154785,9.));
#555 = CARTESIAN_POINT('',(7.184022759444,29.657151154785,9.));
#556 = ORIENTED_EDGE('',*,*,#557,.F.);
#557 = EDGE_CURVE('',#558,#549,#560,.T.);
#558 = VERTEX_POINT('',#559);
#559 = CARTESIAN_POINT('',(7.395688384444,26.137575142285,9.));
#560 = B_SPLINE_CURVE_WITH_KNOTS('',1,(#561,#562),.UNSPECIFIED.,.F.,.F.,
  (2,2),(0.,31.256),.PIECEWISE_BEZIER_KNOTS.);
#561 = CARTESIAN_POINT('',(7.395688384444,26.137575142285,9.));
#562 = CARTESIAN_POINT('',(7.395688384444,29.445485529785,9.));
#563 = ORIENTED_EDGE('',*,*,#564,.F.);
#564 = EDGE_CURVE('',#565,#558,#567,.T.);
#565 = VERTEX_POINT('',#566);
#566 = CARTESIAN_POINT('',(7.184022759444,25.925909517285,9.));
#567 = B_SPLINE_CURVE_WITH_KNOTS('',3,(#568,#569,#570,#571),
  .UNSPECIFIED.,.F.,.F.,(4,4),(0.,1.),.PIECEWISE_BEZIER_KNOTS.);
#568 = CARTESIAN_POINT('',(7.184022759444,25.925909517285,9.));
#569 = CARTESIAN_POINT('',(7.300862184444,25.925909517285,9.));
#570 = CARTESIAN_POINT('',(7.395688384444,26.020629884472,9.));
#571 = CARTESIAN_POINT('',(7.395688384444,26.137575142285,9.));
#572 = ORIENTED_EDGE('',*,*,#573,.F.);
#573 = EDGE_CURVE('',#574,#565,#576,.T.);
#574 = VERTEX_POINT('',#575);
#575 = CARTESIAN_POINT('',(5.237285631877E-02,25.925909517285,9.));
#576 = B_SPLINE_CURVE_WITH_KNOTS('',1,(#577,#578),.UNSPECIFIED.,.F.,.F.,
  (2,2),(0.,67.386),.PIECEWISE_BEZIER_KNOTS.);
#577 = CARTESIAN_POINT('',(5.237285631877E-02,25.925909517285,9.));
#578 = CARTESIAN_POINT('',(7.184022759444,25.925909517285,9.));
#579 = ORIENTED_EDGE('',*,*,#580,.F.);
#580 = EDGE_CURVE('',#581,#574,#583,.T.);
#581 = VERTEX_POINT('',#582);
#582 = CARTESIAN_POINT('',(-1.775359815556,24.989077461035,9.));
#583 = B_SPLINE_CURVE_WITH_KNOTS('',3,(#584,#585,#586,#587),
  .UNSPECIFIED.,.F.,.F.,(4,4),(0.,1.),.PIECEWISE_BEZIER_KNOTS.);
#584 = CARTESIAN_POINT('',(-1.775359815556,24.989077461035,9.));
#585 = CARTESIAN_POINT('',(-1.775359815556,25.715937217285,9.));
#586 = CARTESIAN_POINT('',(-1.047441731181,25.925909517285,9.));
#587 = CARTESIAN_POINT('',(5.237285631877E-02,25.925909517285,9.));
#588 = ORIENTED_EDGE('',*,*,#589,.F.);
#589 = EDGE_CURVE('',#590,#581,#592,.T.);
#590 = VERTEX_POINT('',#591);
#591 = CARTESIAN_POINT('',(1.184572284444,23.212250371972,9.));
#592 = B_SPLINE_CURVE_WITH_KNOTS('',3,(#593,#594,#595,#596),
  .UNSPECIFIED.,.F.,.F.,(4,4),(0.,1.),.PIECEWISE_BEZIER_KNOTS.);
#593 = CARTESIAN_POINT('',(1.184572284444,23.212250371972,9.));
#594 = CARTESIAN_POINT('',(-0.643160387431,23.212250371972,9.));
#595 = CARTESIAN_POINT('',(-1.775359815556,24.181467268847,9.));
#596 = CARTESIAN_POINT('',(-1.775359815556,24.989077461035,9.));
#597 = ORIENTED_EDGE('',*,*,#598,.F.);
#598 = EDGE_CURVE('',#599,#590,#601,.T.);
#599 = VERTEX_POINT('',#600);
#600 = CARTESIAN_POINT('',(7.184022759444,23.212250371972,9.));
#601 = B_SPLINE_CURVE_WITH_KNOTS('',1,(#602,#603),.UNSPECIFIED.,.F.,.F.,
  (2,2),(0.,56.688),.PIECEWISE_BEZIER_KNOTS.);
#602 = CARTESIAN_POINT('',(7.184022759444,23.212250371972,9.));
#603 = CARTESIAN_POINT('',(1.184572284444,23.212250371972,9.));
#604 = ORIENTED_EDGE('',*,*,#605,.F.);
#605 = EDGE_CURVE('',#606,#599,#608,.T.);
#606 = VERTEX_POINT('',#607);
#607 = CARTESIAN_POINT('',(7.395688384444,23.000584746972,9.));
#608 = B_SPLINE_CURVE_WITH_KNOTS('',3,(#609,#610,#611,#612),
  .UNSPECIFIED.,.F.,.F.,(4,4),(0.,1.),.PIECEWISE_BEZIER_KNOTS.);
#609 = CARTESIAN_POINT('',(7.395688384444,23.000584746972,9.));
#610 = CARTESIAN_POINT('',(7.395688384444,23.117530004785,9.));
#611 = CARTESIAN_POINT('',(7.300862184444,23.212250371972,9.));
#612 = CARTESIAN_POINT('',(7.184022759444,23.212250371972,9.));
#613 = ORIENTED_EDGE('',*,*,#614,.F.);
#614 = EDGE_CURVE('',#615,#606,#617,.T.);
#615 = VERTEX_POINT('',#616);
#616 = CARTESIAN_POINT('',(7.395688384444,19.708866779785,9.));
#617 = B_SPLINE_CURVE_WITH_KNOTS('',1,(#618,#619),.UNSPECIFIED.,.F.,.F.,
  (2,2),(0.,31.103),.PIECEWISE_BEZIER_KNOTS.);
#618 = CARTESIAN_POINT('',(7.395688384444,19.708866779785,9.));
#619 = CARTESIAN_POINT('',(7.395688384444,23.000584746972,9.));
#620 = ORIENTED_EDGE('',*,*,#621,.F.);
#621 = EDGE_CURVE('',#622,#615,#624,.T.);
#622 = VERTEX_POINT('',#623);
#623 = CARTESIAN_POINT('',(7.184022759444,19.497201154785,9.));
#624 = B_SPLINE_CURVE_WITH_KNOTS('',3,(#625,#626,#627,#628),
  .UNSPECIFIED.,.F.,.F.,(4,4),(0.,1.),.PIECEWISE_BEZIER_KNOTS.);
#625 = CARTESIAN_POINT('',(7.184022759444,19.497201154785,9.));
#626 = CARTESIAN_POINT('',(7.300862184444,19.497201154785,9.));
#627 = CARTESIAN_POINT('',(7.395688384444,19.591963855097,9.));
#628 = CARTESIAN_POINT('',(7.395688384444,19.708866779785,9.));
#629 = ORIENTED_EDGE('',*,*,#630,.F.);
#630 = EDGE_CURVE('',#631,#622,#633,.T.);
#631 = VERTEX_POINT('',#632);
#632 = CARTESIAN_POINT('',(-8.842832701181,19.497201154785,9.));
#633 = B_SPLINE_CURVE_WITH_KNOTS('',1,(#634,#635),.UNSPECIFIED.,.F.,.F.,
  (2,2),(0.,151.4356),.PIECEWISE_BEZIER_KNOTS.);
#634 = CARTESIAN_POINT('',(-8.842832701181,19.497201154785,9.));
#635 = CARTESIAN_POINT('',(7.184022759444,19.497201154785,9.));
#636 = ORIENTED_EDGE('',*,*,#637,.F.);
#637 = EDGE_CURVE('',#638,#631,#640,.T.);
#638 = VERTEX_POINT('',#639);
#639 = CARTESIAN_POINT('',(-9.051503257587,19.67343395416,9.));
#640 = B_SPLINE_CURVE_WITH_KNOTS('',3,(#641,#642,#643,#644),
  .UNSPECIFIED.,.F.,.F.,(4,4),(0.,1.),.PIECEWISE_BEZIER_KNOTS.);
#641 = CARTESIAN_POINT('',(-9.051503257587,19.67343395416,9.));
#642 = CARTESIAN_POINT('',(-9.034231342587,19.57166512166,9.));
#643 = CARTESIAN_POINT('',(-8.946051443212,19.497201154785,9.));
#644 = CARTESIAN_POINT('',(-8.842832701181,19.497201154785,9.));
#645 = ORIENTED_EDGE('',*,*,#646,.F.);
#646 = EDGE_CURVE('',#499,#638,#647,.T.);
#647 = B_SPLINE_CURVE_WITH_KNOTS('',1,(#648,#649),.UNSPECIFIED.,.F.,.F.,
  (2,2),(0.,31.54896904623),.PIECEWISE_BEZIER_KNOTS.);
#648 = CARTESIAN_POINT('',(-9.610427506962,22.965236587597,9.));
#649 = CARTESIAN_POINT('',(-9.051503257587,19.67343395416,9.));
#650 = PLANE('',#651);
#651 = AXIS2_PLACEMENT_3D('',#652,#653,#654);
#652 = CARTESIAN_POINT('',(0.,6.,9.));
#653 = DIRECTION('',(0.,0.,1.));
#654 = DIRECTION('',(1.,0.,0.));
#655 = ADVANCED_FACE('',(#656),#662,.T.);
#656 = FACE_BOUND('',#657,.F.);
#657 = EDGE_LOOP('',(#658,#659,#660,#661));
#658 = ORIENTED_EDGE('',*,*,#265,.T.);
#659 = ORIENTED_EDGE('',*,*,#329,.T.);
#660 = ORIENTED_EDGE('',*,*,#372,.F.);
#661 = ORIENTED_EDGE('',*,*,#454,.F.);
#662 = CYLINDRICAL_SURFACE('',#663,1.);
#663 = AXIS2_PLACEMENT_3D('',#664,#665,#666);
#664 = CARTESIAN_POINT('',(-11.,-20.,8.));
#665 = DIRECTION('',(0.,1.,0.));
#666 = DIRECTION('',(0.,0.,1.));
#667 = ADVANCED_FACE('',(#668),#674,.T.);
#668 = FACE_BOUND('',#669,.T.);
#669 = EDGE_LOOP('',(#670,#671,#672,#673));
#670 = ORIENTED_EDGE('',*,*,#289,.T.);
#671 = ORIENTED_EDGE('',*,*,#314,.T.);
#672 = ORIENTED_EDGE('',*,*,#362,.F.);
#673 = ORIENTED_EDGE('',*,*,#447,.F.);
#674 = CYLINDRICAL_SURFACE('',#675,1.);
#675 = AXIS2_PLACEMENT_3D('',#676,#677,#678);
#676 = CARTESIAN_POINT('',(11.,-20.,8.));
#677 = DIRECTION('',(0.,1.,0.));
#678 = DIRECTION('',(0.,0.,1.));
#679 = ADVANCED_FACE('',(#680),#705,.F.);
#680 = FACE_BOUND('',#681,.F.);
#681 = EDGE_LOOP('',(#682,#690,#698,#704));
#682 = ORIENTED_EDGE('',*,*,#683,.F.);
#683 = EDGE_CURVE('',#684,#398,#686,.T.);
#684 = VERTEX_POINT('',#685);
#685 = CARTESIAN_POINT('',(-6.074028,-19.021456,8.));
#686 = LINE('',#687,#688);
#687 = CARTESIAN_POINT('',(-6.074028,-19.021456,9.));
#688 = VECTOR('',#689,1.);
#689 = DIRECTION('',(-0.,-0.,-1.));
#690 = ORIENTED_EDGE('',*,*,#691,.F.);
#691 = EDGE_CURVE('',#692,#684,#694,.T.);
#692 = VERTEX_POINT('',#693);
#693 = CARTESIAN_POINT('',(-6.074028,15.576239,8.));
#694 = LINE('',#695,#696);
#695 = CARTESIAN_POINT('',(-6.074028,15.576239,8.));
#696 = VECTOR('',#697,1.);
#697 = DIRECTION('',(0.,-1.,0.));
#698 = ORIENTED_EDGE('',*,*,#699,.T.);
#699 = EDGE_CURVE('',#692,#396,#700,.T.);
#700 = LINE('',#701,#702);
#701 = CARTESIAN_POINT('',(-6.074028,15.576239,9.));
#702 = VECTOR('',#703,1.);
#703 = DIRECTION('',(-0.,-0.,-1.));
#704 = ORIENTED_EDGE('',*,*,#395,.T.);
#705 = PLANE('',#706);
#706 = AXIS2_PLACEMENT_3D('',#707,#708,#709);
#707 = CARTESIAN_POINT('',(-6.074028,15.576239,9.));
#708 = DIRECTION('',(-1.,0.,0.));
#709 = DIRECTION('',(0.,-1.,0.));
#710 = ADVANCED_FACE('',(#711),#736,.F.);
#711 = FACE_BOUND('',#712,.F.);
#712 = EDGE_LOOP('',(#713,#721,#727,#728,#734,#735));
#713 = ORIENTED_EDGE('',*,*,#714,.F.);
#714 = EDGE_CURVE('',#715,#414,#717,.T.);
#715 = VERTEX_POINT('',#716);
#716 = CARTESIAN_POINT('',(6.101273,-19.021456,8.));
#717 = LINE('',#718,#719);
#718 = CARTESIAN_POINT('',(6.101273,-19.021456,9.));
#719 = VECTOR('',#720,1.);
#720 = DIRECTION('',(-0.,-0.,-1.));
#721 = ORIENTED_EDGE('',*,*,#722,.F.);
#722 = EDGE_CURVE('',#463,#715,#723,.T.);
#723 = LINE('',#724,#725);
#724 = CARTESIAN_POINT('',(3.55744775,-19.021456,5.45617475));
#725 = VECTOR('',#726,1.);
#726 = DIRECTION('',(-0.707106781187,-0.,-0.707106781187));
#727 = ORIENTED_EDGE('',*,*,#472,.F.);
#728 = ORIENTED_EDGE('',*,*,#729,.T.);
#729 = EDGE_CURVE('',#473,#684,#730,.T.);
#730 = LINE('',#731,#732);
#731 = CARTESIAN_POINT('',(-6.574028,-19.021456,8.5));
#732 = VECTOR('',#733,1.);
#733 = DIRECTION('',(0.707106781187,0.,-0.707106781187));
#734 = ORIENTED_EDGE('',*,*,#683,.T.);
#735 = ORIENTED_EDGE('',*,*,#421,.T.);
#736 = PLANE('',#737);
#737 = AXIS2_PLACEMENT_3D('',#738,#739,#740);
#738 = CARTESIAN_POINT('',(-6.074028,-19.021456,9.));
#739 = DIRECTION('',(0.,-1.,0.));
#740 = DIRECTION('',(1.,0.,0.));
#741 = ADVANCED_FACE('',(#742),#760,.F.);
#742 = FACE_BOUND('',#743,.F.);
#743 = EDGE_LOOP('',(#744,#752,#758,#759));
#744 = ORIENTED_EDGE('',*,*,#745,.F.);
#745 = EDGE_CURVE('',#746,#406,#748,.T.);
#746 = VERTEX_POINT('',#747);
#747 = CARTESIAN_POINT('',(6.101273,15.576239,8.));
#748 = LINE('',#749,#750);
#749 = CARTESIAN_POINT('',(6.101273,15.576239,9.));
#750 = VECTOR('',#751,1.);
#751 = DIRECTION('',(-0.,-0.,-1.));
#752 = ORIENTED_EDGE('',*,*,#753,.F.);
#753 = EDGE_CURVE('',#715,#746,#754,.T.);
#754 = LINE('',#755,#756);
#755 = CARTESIAN_POINT('',(6.101273,-19.021456,8.));
#756 = VECTOR('',#757,1.);
#757 = DIRECTION('',(0.,1.,0.));
#758 = ORIENTED_EDGE('',*,*,#714,.T.);
#759 = ORIENTED_EDGE('',*,*,#413,.T.);
#760 = PLANE('',#761);
#761 = AXIS2_PLACEMENT_3D('',#762,#763,#764);
#762 = CARTESIAN_POINT('',(6.101273,-19.021456,9.));
#763 = DIRECTION('',(1.,0.,0.));
#764 = DIRECTION('',(0.,1.,0.));
#765 = ADVANCED_FACE('',(#766),#777,.F.);
#766 = FACE_BOUND('',#767,.F.);
#767 = EDGE_LOOP('',(#768,#774,#775,#776));
#768 = ORIENTED_EDGE('',*,*,#769,.F.);
#769 = EDGE_CURVE('',#746,#692,#770,.T.);
#770 = LINE('',#771,#772);
#771 = CARTESIAN_POINT('',(6.101273,15.576239,8.));
#772 = VECTOR('',#773,1.);
#773 = DIRECTION('',(-1.,0.,0.));
#774 = ORIENTED_EDGE('',*,*,#745,.T.);
#775 = ORIENTED_EDGE('',*,*,#405,.T.);
#776 = ORIENTED_EDGE('',*,*,#699,.F.);
#777 = PLANE('',#778);
#778 = AXIS2_PLACEMENT_3D('',#779,#780,#781);
#779 = CARTESIAN_POINT('',(6.101273,15.576239,9.));
#780 = DIRECTION('',(0.,1.,0.));
#781 = DIRECTION('',(-1.,0.,0.));
#782 = ADVANCED_FACE('',(#783),#802,.T.);
#783 = FACE_BOUND('',#784,.F.);
#784 = EDGE_LOOP('',(#785,#786,#794,#801));
#785 = ORIENTED_EDGE('',*,*,#429,.T.);
#786 = ORIENTED_EDGE('',*,*,#787,.T.);
#787 = EDGE_CURVE('',#430,#788,#790,.T.);
#788 = VERTEX_POINT('',#789);
#789 = CARTESIAN_POINT('',(0.7,26.97,-1.));
#790 = LINE('',#791,#792);
#791 = CARTESIAN_POINT('',(0.7,26.97,7.));
#792 = VECTOR('',#793,1.);
#793 = DIRECTION('',(0.,0.,-1.));
#794 = ORIENTED_EDGE('',*,*,#795,.T.);
#795 = EDGE_CURVE('',#788,#788,#796,.T.);
#796 = CIRCLE('',#797,0.7);
#797 = AXIS2_PLACEMENT_3D('',#798,#799,#800);
#798 = CARTESIAN_POINT('',(0.,26.97,-1.));
#799 = DIRECTION('',(0.,0.,-1.));
#800 = DIRECTION('',(1.,0.,0.));
#801 = ORIENTED_EDGE('',*,*,#787,.F.);
#802 = CYLINDRICAL_SURFACE('',#803,0.7);
#803 = AXIS2_PLACEMENT_3D('',#804,#805,#806);
#804 = CARTESIAN_POINT('',(0.,26.97,7.));
#805 = DIRECTION('',(0.,0.,1.));
#806 = DIRECTION('',(1.,0.,0.));
#807 = ADVANCED_FACE('',(#808),#819,.F.);
#808 = FACE_BOUND('',#809,.T.);
#809 = EDGE_LOOP('',(#810,#816,#817,#818));
#810 = ORIENTED_EDGE('',*,*,#811,.T.);
#811 = EDGE_CURVE('',#465,#746,#812,.T.);
#812 = LINE('',#813,#814);
#813 = CARTESIAN_POINT('',(0.8349905,10.3099565,2.7337175));
#814 = VECTOR('',#815,1.);
#815 = DIRECTION('',(-0.57735026919,-0.57735026919,-0.57735026919));
#816 = ORIENTED_EDGE('',*,*,#753,.F.);
#817 = ORIENTED_EDGE('',*,*,#722,.F.);
#818 = ORIENTED_EDGE('',*,*,#462,.T.);
#819 = PLANE('',#820);
#820 = AXIS2_PLACEMENT_3D('',#821,#822,#823);
#821 = CARTESIAN_POINT('',(6.601273,-19.021456,8.5));
#822 = DIRECTION('',(0.707106781187,0.,-0.707106781187));
#823 = DIRECTION('',(-0.,-1.,-0.));
#824 = ADVANCED_FACE('',(#825),#836,.T.);
#825 = FACE_BOUND('',#826,.T.);
#826 = EDGE_LOOP('',(#827,#828,#829,#835));
#827 = ORIENTED_EDGE('',*,*,#811,.F.);
#828 = ORIENTED_EDGE('',*,*,#488,.T.);
#829 = ORIENTED_EDGE('',*,*,#830,.T.);
#830 = EDGE_CURVE('',#481,#692,#831,.T.);
#831 = LINE('',#832,#833);
#832 = CARTESIAN_POINT('',(-6.407361333333,15.909572333333,
    8.333333333333));
#833 = VECTOR('',#834,1.);
#834 = DIRECTION('',(0.57735026919,-0.57735026919,-0.57735026919));
#835 = ORIENTED_EDGE('',*,*,#769,.F.);
#836 = PLANE('',#837);
#837 = AXIS2_PLACEMENT_3D('',#838,#839,#840);
#838 = CARTESIAN_POINT('',(1.36225E-02,16.109779497766,8.533540497766));
#839 = DIRECTION('',(0.,-0.707106781187,0.707106781187));
#840 = DIRECTION('',(0.,-0.707106781187,-0.707106781187));
#841 = ADVANCED_FACE('',(#842),#848,.F.);
#842 = FACE_BOUND('',#843,.T.);
#843 = EDGE_LOOP('',(#844,#845,#846,#847));
#844 = ORIENTED_EDGE('',*,*,#830,.F.);
#845 = ORIENTED_EDGE('',*,*,#480,.T.);
#846 = ORIENTED_EDGE('',*,*,#729,.T.);
#847 = ORIENTED_EDGE('',*,*,#691,.F.);
#848 = PLANE('',#849);
#849 = AXIS2_PLACEMENT_3D('',#850,#851,#852);
#850 = CARTESIAN_POINT('',(-6.574028,15.576239,8.5));
#851 = DIRECTION('',(-0.707106781187,0.,-0.707106781187));
#852 = DIRECTION('',(0.,1.,0.));
#853 = ADVANCED_FACE('',(#854),#880,.F.);
#854 = FACE_BOUND('',#855,.F.);
#855 = EDGE_LOOP('',(#856,#864,#873,#879));
#856 = ORIENTED_EDGE('',*,*,#857,.T.);
#857 = EDGE_CURVE('',#497,#858,#860,.T.);
#858 = VERTEX_POINT('',#859);
#859 = CARTESIAN_POINT('',(-9.401756950556,23.212250371972,8.5));
#860 = LINE('',#861,#862);
#861 = CARTESIAN_POINT('',(-9.401756950556,23.212250371972,9.));
#862 = VECTOR('',#863,1.);
#863 = DIRECTION('',(-0.,-0.,-1.));
#864 = ORIENTED_EDGE('',*,*,#865,.T.);
#865 = EDGE_CURVE('',#858,#866,#868,.T.);
#866 = VERTEX_POINT('',#867);
#867 = CARTESIAN_POINT('',(-9.610427506962,22.965236587597,8.5));
#868 = B_SPLINE_CURVE_WITH_KNOTS('',3,(#869,#870,#871,#872),
  .UNSPECIFIED.,.F.,.F.,(4,4),(0.,1.),.PIECEWISE_BEZIER_KNOTS.);
#869 = CARTESIAN_POINT('',(-9.401756950556,23.212250371972,8.5));
#870 = CARTESIAN_POINT('',(-9.532809722275,23.212250371972,8.5));
#871 = CARTESIAN_POINT('',(-9.632366648994,23.094352618847,8.5));
#872 = CARTESIAN_POINT('',(-9.610427506962,22.965236587597,8.5));
#873 = ORIENTED_EDGE('',*,*,#874,.F.);
#874 = EDGE_CURVE('',#499,#866,#875,.T.);
#875 = LINE('',#876,#877);
#876 = CARTESIAN_POINT('',(-9.610427506962,22.965236587597,9.));
#877 = VECTOR('',#878,1.);
#878 = DIRECTION('',(-0.,-0.,-1.));
#879 = ORIENTED_EDGE('',*,*,#496,.F.);
#880 = SURFACE_OF_LINEAR_EXTRUSION('',#881,#886);
#881 = B_SPLINE_CURVE_WITH_KNOTS('',3,(#882,#883,#884,#885),
  .UNSPECIFIED.,.F.,.F.,(4,4),(0.,1.),.PIECEWISE_BEZIER_KNOTS.);
#882 = CARTESIAN_POINT('',(-9.401756950556,23.212250371972,9.));
#883 = CARTESIAN_POINT('',(-9.532809722275,23.212250371972,9.));
#884 = CARTESIAN_POINT('',(-9.632366648994,23.094352618847,9.));
#885 = CARTESIAN_POINT('',(-9.610427506962,22.965236587597,9.));
#886 = VECTOR('',#887,1.);
#887 = DIRECTION('',(0.,0.,1.));
#888 = ADVANCED_FACE('',(#889),#906,.F.);
#889 = FACE_BOUND('',#890,.F.);
#890 = EDGE_LOOP('',(#891,#892,#899,#905));
#891 = ORIENTED_EDGE('',*,*,#874,.T.);
#892 = ORIENTED_EDGE('',*,*,#893,.T.);
#893 = EDGE_CURVE('',#866,#894,#896,.T.);
#894 = VERTEX_POINT('',#895);
#895 = CARTESIAN_POINT('',(-9.051503257587,19.67343395416,8.5));
#896 = B_SPLINE_CURVE_WITH_KNOTS('',1,(#897,#898),.UNSPECIFIED.,.F.,.F.,
  (2,2),(0.,31.54896904623),.PIECEWISE_BEZIER_KNOTS.);
#897 = CARTESIAN_POINT('',(-9.610427506962,22.965236587597,8.5));
#898 = CARTESIAN_POINT('',(-9.051503257587,19.67343395416,8.5));
#899 = ORIENTED_EDGE('',*,*,#900,.F.);
#900 = EDGE_CURVE('',#638,#894,#901,.T.);
#901 = LINE('',#902,#903);
#902 = CARTESIAN_POINT('',(-9.051503257587,19.67343395416,9.));
#903 = VECTOR('',#904,1.);
#904 = DIRECTION('',(-0.,-0.,-1.));
#905 = ORIENTED_EDGE('',*,*,#646,.F.);
#906 = SURFACE_OF_LINEAR_EXTRUSION('',#907,#910);
#907 = B_SPLINE_CURVE_WITH_KNOTS('',1,(#908,#909),.UNSPECIFIED.,.F.,.F.,
  (2,2),(0.,31.54896904623),.PIECEWISE_BEZIER_KNOTS.);
#908 = CARTESIAN_POINT('',(-9.610427506962,22.965236587597,9.));
#909 = CARTESIAN_POINT('',(-9.051503257587,19.67343395416,9.));
#910 = VECTOR('',#911,1.);
#911 = DIRECTION('',(0.,0.,1.));
#912 = ADVANCED_FACE('',(#913),#932,.F.);
#913 = FACE_BOUND('',#914,.F.);
#914 = EDGE_LOOP('',(#915,#916,#925,#931));
#915 = ORIENTED_EDGE('',*,*,#900,.T.);
#916 = ORIENTED_EDGE('',*,*,#917,.T.);
#917 = EDGE_CURVE('',#894,#918,#920,.T.);
#918 = VERTEX_POINT('',#919);
#919 = CARTESIAN_POINT('',(-8.842832701181,19.497201154785,8.5));
#920 = B_SPLINE_CURVE_WITH_KNOTS('',3,(#921,#922,#923,#924),
  .UNSPECIFIED.,.F.,.F.,(4,4),(0.,1.),.PIECEWISE_BEZIER_KNOTS.);
#921 = CARTESIAN_POINT('',(-9.051503257587,19.67343395416,8.5));
#922 = CARTESIAN_POINT('',(-9.034231342587,19.57166512166,8.5));
#923 = CARTESIAN_POINT('',(-8.946051443212,19.497201154785,8.5));
#924 = CARTESIAN_POINT('',(-8.842832701181,19.497201154785,8.5));
#925 = ORIENTED_EDGE('',*,*,#926,.F.);
#926 = EDGE_CURVE('',#631,#918,#927,.T.);
#927 = LINE('',#928,#929);
#928 = CARTESIAN_POINT('',(-8.842832701181,19.497201154785,9.));
#929 = VECTOR('',#930,1.);
#930 = DIRECTION('',(-0.,-0.,-1.));
#931 = ORIENTED_EDGE('',*,*,#637,.F.);
#932 = SURFACE_OF_LINEAR_EXTRUSION('',#933,#938);
#933 = B_SPLINE_CURVE_WITH_KNOTS('',3,(#934,#935,#936,#937),
  .UNSPECIFIED.,.F.,.F.,(4,4),(0.,1.),.PIECEWISE_BEZIER_KNOTS.);
#934 = CARTESIAN_POINT('',(-9.051503257587,19.67343395416,9.));
#935 = CARTESIAN_POINT('',(-9.034231342587,19.57166512166,9.));
#936 = CARTESIAN_POINT('',(-8.946051443212,19.497201154785,9.));
#937 = CARTESIAN_POINT('',(-8.842832701181,19.497201154785,9.));
#938 = VECTOR('',#939,1.);
#939 = DIRECTION('',(0.,0.,1.));
#940 = ADVANCED_FACE('',(#941),#958,.F.);
#941 = FACE_BOUND('',#942,.F.);
#942 = EDGE_LOOP('',(#943,#944,#951,#957));
#943 = ORIENTED_EDGE('',*,*,#926,.T.);
#944 = ORIENTED_EDGE('',*,*,#945,.T.);
#945 = EDGE_CURVE('',#918,#946,#948,.T.);
#946 = VERTEX_POINT('',#947);
#947 = CARTESIAN_POINT('',(7.184022759444,19.497201154785,8.5));
#948 = B_SPLINE_CURVE_WITH_KNOTS('',1,(#949,#950),.UNSPECIFIED.,.F.,.F.,
  (2,2),(0.,151.4356),.PIECEWISE_BEZIER_KNOTS.);
#949 = CARTESIAN_POINT('',(-8.842832701181,19.497201154785,8.5));
#950 = CARTESIAN_POINT('',(7.184022759444,19.497201154785,8.5));
#951 = ORIENTED_EDGE('',*,*,#952,.F.);
#952 = EDGE_CURVE('',#622,#946,#953,.T.);
#953 = LINE('',#954,#955);
#954 = CARTESIAN_POINT('',(7.184022759444,19.497201154785,9.));
#955 = VECTOR('',#956,1.);
#956 = DIRECTION('',(-0.,-0.,-1.));
#957 = ORIENTED_EDGE('',*,*,#630,.F.);
#958 = SURFACE_OF_LINEAR_EXTRUSION('',#959,#962);
#959 = B_SPLINE_CURVE_WITH_KNOTS('',1,(#960,#961),.UNSPECIFIED.,.F.,.F.,
  (2,2),(0.,151.4356),.PIECEWISE_BEZIER_KNOTS.);
#960 = CARTESIAN_POINT('',(-8.842832701181,19.497201154785,9.));
#961 = CARTESIAN_POINT('',(7.184022759444,19.497201154785,9.));
#962 = VECTOR('',#963,1.);
#963 = DIRECTION('',(0.,0.,1.));
#964 = ADVANCED_FACE('',(#965),#984,.F.);
#965 = FACE_BOUND('',#966,.F.);
#966 = EDGE_LOOP('',(#967,#968,#977,#983));
#967 = ORIENTED_EDGE('',*,*,#952,.T.);
#968 = ORIENTED_EDGE('',*,*,#969,.T.);
#969 = EDGE_CURVE('',#946,#970,#972,.T.);
#970 = VERTEX_POINT('',#971);
#971 = CARTESIAN_POINT('',(7.395688384444,19.708866779785,8.5));
#972 = B_SPLINE_CURVE_WITH_KNOTS('',3,(#973,#974,#975,#976),
  .UNSPECIFIED.,.F.,.F.,(4,4),(0.,1.),.PIECEWISE_BEZIER_KNOTS.);
#973 = CARTESIAN_POINT('',(7.184022759444,19.497201154785,8.5));
#974 = CARTESIAN_POINT('',(7.300862184444,19.497201154785,8.5));
#975 = CARTESIAN_POINT('',(7.395688384444,19.591963855097,8.5));
#976 = CARTESIAN_POINT('',(7.395688384444,19.708866779785,8.5));
#977 = ORIENTED_EDGE('',*,*,#978,.F.);
#978 = EDGE_CURVE('',#615,#970,#979,.T.);
#979 = LINE('',#980,#981);
#980 = CARTESIAN_POINT('',(7.395688384444,19.708866779785,9.));
#981 = VECTOR('',#982,1.);
#982 = DIRECTION('',(-0.,-0.,-1.));
#983 = ORIENTED_EDGE('',*,*,#621,.F.);
#984 = SURFACE_OF_LINEAR_EXTRUSION('',#985,#990);
#985 = B_SPLINE_CURVE_WITH_KNOTS('',3,(#986,#987,#988,#989),
  .UNSPECIFIED.,.F.,.F.,(4,4),(0.,1.),.PIECEWISE_BEZIER_KNOTS.);
#986 = CARTESIAN_POINT('',(7.184022759444,19.497201154785,9.));
#987 = CARTESIAN_POINT('',(7.300862184444,19.497201154785,9.));
#988 = CARTESIAN_POINT('',(7.395688384444,19.591963855097,9.));
#989 = CARTESIAN_POINT('',(7.395688384444,19.708866779785,9.));
#990 = VECTOR('',#991,1.);
#991 = DIRECTION('',(0.,0.,1.));
#992 = ADVANCED_FACE('',(#993),#1010,.F.);
#993 = FACE_BOUND('',#994,.F.);
#994 = EDGE_LOOP('',(#995,#996,#1003,#1009));
#995 = ORIENTED_EDGE('',*,*,#978,.T.);
#996 = ORIENTED_EDGE('',*,*,#997,.T.);
#997 = EDGE_CURVE('',#970,#998,#1000,.T.);
#998 = VERTEX_POINT('',#999);
#999 = CARTESIAN_POINT('',(7.395688384444,23.000584746972,8.5));
#1000 = B_SPLINE_CURVE_WITH_KNOTS('',1,(#1001,#1002),.UNSPECIFIED.,.F.,
  .F.,(2,2),(0.,31.103),.PIECEWISE_BEZIER_KNOTS.);
#1001 = CARTESIAN_POINT('',(7.395688384444,19.708866779785,8.5));
#1002 = CARTESIAN_POINT('',(7.395688384444,23.000584746972,8.5));
#1003 = ORIENTED_EDGE('',*,*,#1004,.F.);
#1004 = EDGE_CURVE('',#606,#998,#1005,.T.);
#1005 = LINE('',#1006,#1007);
#1006 = CARTESIAN_POINT('',(7.395688384444,23.000584746972,9.));
#1007 = VECTOR('',#1008,1.);
#1008 = DIRECTION('',(-0.,-0.,-1.));
#1009 = ORIENTED_EDGE('',*,*,#614,.F.);
#1010 = SURFACE_OF_LINEAR_EXTRUSION('',#1011,#1014);
#1011 = B_SPLINE_CURVE_WITH_KNOTS('',1,(#1012,#1013),.UNSPECIFIED.,.F.,
  .F.,(2,2),(0.,31.103),.PIECEWISE_BEZIER_KNOTS.);
#1012 = CARTESIAN_POINT('',(7.395688384444,19.708866779785,9.));
#1013 = CARTESIAN_POINT('',(7.395688384444,23.000584746972,9.));
#1014 = VECTOR('',#1015,1.);
#1015 = DIRECTION('',(0.,0.,1.));
#1016 = ADVANCED_FACE('',(#1017),#1036,.F.);
#1017 = FACE_BOUND('',#1018,.F.);
#1018 = EDGE_LOOP('',(#1019,#1020,#1029,#1035));
#1019 = ORIENTED_EDGE('',*,*,#1004,.T.);
#1020 = ORIENTED_EDGE('',*,*,#1021,.T.);
#1021 = EDGE_CURVE('',#998,#1022,#1024,.T.);
#1022 = VERTEX_POINT('',#1023);
#1023 = CARTESIAN_POINT('',(7.184022759444,23.212250371972,8.5));
#1024 = B_SPLINE_CURVE_WITH_KNOTS('',3,(#1025,#1026,#1027,#1028),
  .UNSPECIFIED.,.F.,.F.,(4,4),(0.,1.),.PIECEWISE_BEZIER_KNOTS.);
#1025 = CARTESIAN_POINT('',(7.395688384444,23.000584746972,8.5));
#1026 = CARTESIAN_POINT('',(7.395688384444,23.117530004785,8.5));
#1027 = CARTESIAN_POINT('',(7.300862184444,23.212250371972,8.5));
#1028 = CARTESIAN_POINT('',(7.184022759444,23.212250371972,8.5));
#1029 = ORIENTED_EDGE('',*,*,#1030,.F.);
#1030 = EDGE_CURVE('',#599,#1022,#1031,.T.);
#1031 = LINE('',#1032,#1033);
#1032 = CARTESIAN_POINT('',(7.184022759444,23.212250371972,9.));
#1033 = VECTOR('',#1034,1.);
#1034 = DIRECTION('',(-0.,-0.,-1.));
#1035 = ORIENTED_EDGE('',*,*,#605,.F.);
#1036 = SURFACE_OF_LINEAR_EXTRUSION('',#1037,#1042);
#1037 = B_SPLINE_CURVE_WITH_KNOTS('',3,(#1038,#1039,#1040,#1041),
  .UNSPECIFIED.,.F.,.F.,(4,4),(0.,1.),.PIECEWISE_BEZIER_KNOTS.);
#1038 = CARTESIAN_POINT('',(7.395688384444,23.000584746972,9.));
#1039 = CARTESIAN_POINT('',(7.395688384444,23.117530004785,9.));
#1040 = CARTESIAN_POINT('',(7.300862184444,23.212250371972,9.));
#1041 = CARTESIAN_POINT('',(7.184022759444,23.212250371972,9.));
#1042 = VECTOR('',#1043,1.);
#1043 = DIRECTION('',(0.,0.,1.));
#1044 = ADVANCED_FACE('',(#1045),#1062,.F.);
#1045 = FACE_BOUND('',#1046,.F.);
#1046 = EDGE_LOOP('',(#1047,#1048,#1055,#1061));
#1047 = ORIENTED_EDGE('',*,*,#1030,.T.);
#1048 = ORIENTED_EDGE('',*,*,#1049,.T.);
#1049 = EDGE_CURVE('',#1022,#1050,#1052,.T.);
#1050 = VERTEX_POINT('',#1051);
#1051 = CARTESIAN_POINT('',(1.184572284444,23.212250371972,8.5));
#1052 = B_SPLINE_CURVE_WITH_KNOTS('',1,(#1053,#1054),.UNSPECIFIED.,.F.,
  .F.,(2,2),(0.,56.688),.PIECEWISE_BEZIER_KNOTS.);
#1053 = CARTESIAN_POINT('',(7.184022759444,23.212250371972,8.5));
#1054 = CARTESIAN_POINT('',(1.184572284444,23.212250371972,8.5));
#1055 = ORIENTED_EDGE('',*,*,#1056,.F.);
#1056 = EDGE_CURVE('',#590,#1050,#1057,.T.);
#1057 = LINE('',#1058,#1059);
#1058 = CARTESIAN_POINT('',(1.184572284444,23.212250371972,9.));
#1059 = VECTOR('',#1060,1.);
#1060 = DIRECTION('',(-0.,-0.,-1.));
#1061 = ORIENTED_EDGE('',*,*,#598,.F.);
#1062 = SURFACE_OF_LINEAR_EXTRUSION('',#1063,#1066);
#1063 = B_SPLINE_CURVE_WITH_KNOTS('',1,(#1064,#1065),.UNSPECIFIED.,.F.,
  .F.,(2,2),(0.,56.688),.PIECEWISE_BEZIER_KNOTS.);
#1064 = CARTESIAN_POINT('',(7.184022759444,23.212250371972,9.));
#1065 = CARTESIAN_POINT('',(1.184572284444,23.212250371972,9.));
#1066 = VECTOR('',#1067,1.);
#1067 = DIRECTION('',(0.,0.,1.));
#1068 = ADVANCED_FACE('',(#1069),#1088,.F.);
#1069 = FACE_BOUND('',#1070,.F.);
#1070 = EDGE_LOOP('',(#1071,#1072,#1081,#1087));
#1071 = ORIENTED_EDGE('',*,*,#1056,.T.);
#1072 = ORIENTED_EDGE('',*,*,#1073,.T.);
#1073 = EDGE_CURVE('',#1050,#1074,#1076,.T.);
#1074 = VERTEX_POINT('',#1075);
#1075 = CARTESIAN_POINT('',(-1.775359815556,24.989077461035,8.5));
#1076 = B_SPLINE_CURVE_WITH_KNOTS('',3,(#1077,#1078,#1079,#1080),
  .UNSPECIFIED.,.F.,.F.,(4,4),(0.,1.),.PIECEWISE_BEZIER_KNOTS.);
#1077 = CARTESIAN_POINT('',(1.184572284444,23.212250371972,8.5));
#1078 = CARTESIAN_POINT('',(-0.643160387431,23.212250371972,8.5));
#1079 = CARTESIAN_POINT('',(-1.775359815556,24.181467268847,8.5));
#1080 = CARTESIAN_POINT('',(-1.775359815556,24.989077461035,8.5));
#1081 = ORIENTED_EDGE('',*,*,#1082,.F.);
#1082 = EDGE_CURVE('',#581,#1074,#1083,.T.);
#1083 = LINE('',#1084,#1085);
#1084 = CARTESIAN_POINT('',(-1.775359815556,24.989077461035,9.));
#1085 = VECTOR('',#1086,1.);
#1086 = DIRECTION('',(-0.,-0.,-1.));
#1087 = ORIENTED_EDGE('',*,*,#589,.F.);
#1088 = SURFACE_OF_LINEAR_EXTRUSION('',#1089,#1094);
#1089 = B_SPLINE_CURVE_WITH_KNOTS('',3,(#1090,#1091,#1092,#1093),
  .UNSPECIFIED.,.F.,.F.,(4,4),(0.,1.),.PIECEWISE_BEZIER_KNOTS.);
#1090 = CARTESIAN_POINT('',(1.184572284444,23.212250371972,9.));
#1091 = CARTESIAN_POINT('',(-0.643160387431,23.212250371972,9.));
#1092 = CARTESIAN_POINT('',(-1.775359815556,24.181467268847,9.));
#1093 = CARTESIAN_POINT('',(-1.775359815556,24.989077461035,9.));
#1094 = VECTOR('',#1095,1.);
#1095 = DIRECTION('',(0.,0.,1.));
#1096 = ADVANCED_FACE('',(#1097),#1116,.F.);
#1097 = FACE_BOUND('',#1098,.F.);
#1098 = EDGE_LOOP('',(#1099,#1100,#1109,#1115));
#1099 = ORIENTED_EDGE('',*,*,#1082,.T.);
#1100 = ORIENTED_EDGE('',*,*,#1101,.T.);
#1101 = EDGE_CURVE('',#1074,#1102,#1104,.T.);
#1102 = VERTEX_POINT('',#1103);
#1103 = CARTESIAN_POINT('',(5.237285631877E-02,25.925909517285,8.5));
#1104 = B_SPLINE_CURVE_WITH_KNOTS('',3,(#1105,#1106,#1107,#1108),
  .UNSPECIFIED.,.F.,.F.,(4,4),(0.,1.),.PIECEWISE_BEZIER_KNOTS.);
#1105 = CARTESIAN_POINT('',(-1.775359815556,24.989077461035,8.5));
#1106 = CARTESIAN_POINT('',(-1.775359815556,25.715937217285,8.5));
#1107 = CARTESIAN_POINT('',(-1.047441731181,25.925909517285,8.5));
#1108 = CARTESIAN_POINT('',(5.237285631877E-02,25.925909517285,8.5));
#1109 = ORIENTED_EDGE('',*,*,#1110,.F.);
#1110 = EDGE_CURVE('',#574,#1102,#1111,.T.);
#1111 = LINE('',#1112,#1113);
#1112 = CARTESIAN_POINT('',(5.237285631877E-02,25.925909517285,9.));
#1113 = VECTOR('',#1114,1.);
#1114 = DIRECTION('',(-0.,-0.,-1.));
#1115 = ORIENTED_EDGE('',*,*,#580,.F.);
#1116 = SURFACE_OF_LINEAR_EXTRUSION('',#1117,#1122);
#1117 = B_SPLINE_CURVE_WITH_KNOTS('',3,(#1118,#1119,#1120,#1121),
  .UNSPECIFIED.,.F.,.F.,(4,4),(0.,1.),.PIECEWISE_BEZIER_KNOTS.);
#1118 = CARTESIAN_POINT('',(-1.775359815556,24.989077461035,9.));
#1119 = CARTESIAN_POINT('',(-1.775359815556,25.715937217285,9.));
#1120 = CARTESIAN_POINT('',(-1.047441731181,25.925909517285,9.));
#1121 = CARTESIAN_POINT('',(5.237285631877E-02,25.925909517285,9.));
#1122 = VECTOR('',#1123,1.);
#1123 = DIRECTION('',(0.,0.,1.));
#1124 = ADVANCED_FACE('',(#1125),#1142,.F.);
#1125 = FACE_BOUND('',#1126,.F.);
#1126 = EDGE_LOOP('',(#1127,#1128,#1135,#1141));
#1127 = ORIENTED_EDGE('',*,*,#1110,.T.);
#1128 = ORIENTED_EDGE('',*,*,#1129,.T.);
#1129 = EDGE_CURVE('',#1102,#1130,#1132,.T.);
#1130 = VERTEX_POINT('',#1131);
#1131 = CARTESIAN_POINT('',(7.184022759444,25.925909517285,8.5));
#1132 = B_SPLINE_CURVE_WITH_KNOTS('',1,(#1133,#1134),.UNSPECIFIED.,.F.,
  .F.,(2,2),(0.,67.386),.PIECEWISE_BEZIER_KNOTS.);
#1133 = CARTESIAN_POINT('',(5.237285631877E-02,25.925909517285,8.5));
#1134 = CARTESIAN_POINT('',(7.184022759444,25.925909517285,8.5));
#1135 = ORIENTED_EDGE('',*,*,#1136,.F.);
#1136 = EDGE_CURVE('',#565,#1130,#1137,.T.);
#1137 = LINE('',#1138,#1139);
#1138 = CARTESIAN_POINT('',(7.184022759444,25.925909517285,9.));
#1139 = VECTOR('',#1140,1.);
#1140 = DIRECTION('',(-0.,-0.,-1.));
#1141 = ORIENTED_EDGE('',*,*,#573,.F.);
#1142 = SURFACE_OF_LINEAR_EXTRUSION('',#1143,#1146);
#1143 = B_SPLINE_CURVE_WITH_KNOTS('',1,(#1144,#1145),.UNSPECIFIED.,.F.,
  .F.,(2,2),(0.,67.386),.PIECEWISE_BEZIER_KNOTS.);
#1144 = CARTESIAN_POINT('',(5.237285631877E-02,25.925909517285,9.));
#1145 = CARTESIAN_POINT('',(7.184022759444,25.925909517285,9.));
#1146 = VECTOR('',#1147,1.);
#1147 = DIRECTION('',(0.,0.,1.));
#1148 = ADVANCED_FACE('',(#1149),#1168,.F.);
#1149 = FACE_BOUND('',#1150,.F.);
#1150 = EDGE_LOOP('',(#1151,#1152,#1161,#1167));
#1151 = ORIENTED_EDGE('',*,*,#1136,.T.);
#1152 = ORIENTED_EDGE('',*,*,#1153,.T.);
#1153 = EDGE_CURVE('',#1130,#1154,#1156,.T.);
#1154 = VERTEX_POINT('',#1155);
#1155 = CARTESIAN_POINT('',(7.395688384444,26.137575142285,8.5));
#1156 = B_SPLINE_CURVE_WITH_KNOTS('',3,(#1157,#1158,#1159,#1160),
  .UNSPECIFIED.,.F.,.F.,(4,4),(0.,1.),.PIECEWISE_BEZIER_KNOTS.);
#1157 = CARTESIAN_POINT('',(7.184022759444,25.925909517285,8.5));
#1158 = CARTESIAN_POINT('',(7.300862184444,25.925909517285,8.5));
#1159 = CARTESIAN_POINT('',(7.395688384444,26.020629884472,8.5));
#1160 = CARTESIAN_POINT('',(7.395688384444,26.137575142285,8.5));
#1161 = ORIENTED_EDGE('',*,*,#1162,.F.);
#1162 = EDGE_CURVE('',#558,#1154,#1163,.T.);
#1163 = LINE('',#1164,#1165);
#1164 = CARTESIAN_POINT('',(7.395688384444,26.137575142285,9.));
#1165 = VECTOR('',#1166,1.);
#1166 = DIRECTION('',(-0.,-0.,-1.));
#1167 = ORIENTED_EDGE('',*,*,#564,.F.);
#1168 = SURFACE_OF_LINEAR_EXTRUSION('',#1169,#1174);
#1169 = B_SPLINE_CURVE_WITH_KNOTS('',3,(#1170,#1171,#1172,#1173),
  .UNSPECIFIED.,.F.,.F.,(4,4),(0.,1.),.PIECEWISE_BEZIER_KNOTS.);
#1170 = CARTESIAN_POINT('',(7.184022759444,25.925909517285,9.));
#1171 = CARTESIAN_POINT('',(7.300862184444,25.925909517285,9.));
#1172 = CARTESIAN_POINT('',(7.395688384444,26.020629884472,9.));
#1173 = CARTESIAN_POINT('',(7.395688384444,26.137575142285,9.));
#1174 = VECTOR('',#1175,1.);
#1175 = DIRECTION('',(0.,0.,1.));
#1176 = ADVANCED_FACE('',(#1177),#1194,.F.);
#1177 = FACE_BOUND('',#1178,.F.);
#1178 = EDGE_LOOP('',(#1179,#1180,#1187,#1193));
#1179 = ORIENTED_EDGE('',*,*,#1162,.T.);
#1180 = ORIENTED_EDGE('',*,*,#1181,.T.);
#1181 = EDGE_CURVE('',#1154,#1182,#1184,.T.);
#1182 = VERTEX_POINT('',#1183);
#1183 = CARTESIAN_POINT('',(7.395688384444,29.445485529785,8.5));
#1184 = B_SPLINE_CURVE_WITH_KNOTS('',1,(#1185,#1186),.UNSPECIFIED.,.F.,
  .F.,(2,2),(0.,31.256),.PIECEWISE_BEZIER_KNOTS.);
#1185 = CARTESIAN_POINT('',(7.395688384444,26.137575142285,8.5));
#1186 = CARTESIAN_POINT('',(7.395688384444,29.445485529785,8.5));
#1187 = ORIENTED_EDGE('',*,*,#1188,.F.);
#1188 = EDGE_CURVE('',#549,#1182,#1189,.T.);
#1189 = LINE('',#1190,#1191);
#1190 = CARTESIAN_POINT('',(7.395688384444,29.445485529785,9.));
#1191 = VECTOR('',#1192,1.);
#1192 = DIRECTION('',(-0.,-0.,-1.));
#1193 = ORIENTED_EDGE('',*,*,#557,.F.);
#1194 = SURFACE_OF_LINEAR_EXTRUSION('',#1195,#1198);
#1195 = B_SPLINE_CURVE_WITH_KNOTS('',1,(#1196,#1197),.UNSPECIFIED.,.F.,
  .F.,(2,2),(0.,31.256),.PIECEWISE_BEZIER_KNOTS.);
#1196 = CARTESIAN_POINT('',(7.395688384444,26.137575142285,9.));
#1197 = CARTESIAN_POINT('',(7.395688384444,29.445485529785,9.));
#1198 = VECTOR('',#1199,1.);
#1199 = DIRECTION('',(0.,0.,1.));
#1200 = ADVANCED_FACE('',(#1201),#1220,.F.);
#1201 = FACE_BOUND('',#1202,.F.);
#1202 = EDGE_LOOP('',(#1203,#1204,#1213,#1219));
#1203 = ORIENTED_EDGE('',*,*,#1188,.T.);
#1204 = ORIENTED_EDGE('',*,*,#1205,.T.);
#1205 = EDGE_CURVE('',#1182,#1206,#1208,.T.);
#1206 = VERTEX_POINT('',#1207);
#1207 = CARTESIAN_POINT('',(7.184022759444,29.657151154785,8.5));
#1208 = B_SPLINE_CURVE_WITH_KNOTS('',3,(#1209,#1210,#1211,#1212),
  .UNSPECIFIED.,.F.,.F.,(4,4),(0.,1.),.PIECEWISE_BEZIER_KNOTS.);
#1209 = CARTESIAN_POINT('',(7.395688384444,29.445485529785,8.5));
#1210 = CARTESIAN_POINT('',(7.395688384444,29.562430787597,8.5));
#1211 = CARTESIAN_POINT('',(7.300862184444,29.657151154785,8.5));
#1212 = CARTESIAN_POINT('',(7.184022759444,29.657151154785,8.5));
#1213 = ORIENTED_EDGE('',*,*,#1214,.F.);
#1214 = EDGE_CURVE('',#542,#1206,#1215,.T.);
#1215 = LINE('',#1216,#1217);
#1216 = CARTESIAN_POINT('',(7.184022759444,29.657151154785,9.));
#1217 = VECTOR('',#1218,1.);
#1218 = DIRECTION('',(-0.,-0.,-1.));
#1219 = ORIENTED_EDGE('',*,*,#548,.F.);
#1220 = SURFACE_OF_LINEAR_EXTRUSION('',#1221,#1226);
#1221 = B_SPLINE_CURVE_WITH_KNOTS('',3,(#1222,#1223,#1224,#1225),
  .UNSPECIFIED.,.F.,.F.,(4,4),(0.,1.),.PIECEWISE_BEZIER_KNOTS.);
#1222 = CARTESIAN_POINT('',(7.395688384444,29.445485529785,9.));
#1223 = CARTESIAN_POINT('',(7.395688384444,29.562430787597,9.));
#1224 = CARTESIAN_POINT('',(7.300862184444,29.657151154785,9.));
#1225 = CARTESIAN_POINT('',(7.184022759444,29.657151154785,9.));
#1226 = VECTOR('',#1227,1.);
#1227 = DIRECTION('',(0.,0.,1.));
#1228 = ADVANCED_FACE('',(#1229),#1246,.F.);
#1229 = FACE_BOUND('',#1230,.F.);
#1230 = EDGE_LOOP('',(#1231,#1232,#1239,#1245));
#1231 = ORIENTED_EDGE('',*,*,#1214,.T.);
#1232 = ORIENTED_EDGE('',*,*,#1233,.T.);
#1233 = EDGE_CURVE('',#1206,#1234,#1236,.T.);
#1234 = VERTEX_POINT('',#1235);
#1235 = CARTESIAN_POINT('',(-0.481342017119,29.657151154785,8.5));
#1236 = B_SPLINE_CURVE_WITH_KNOTS('',1,(#1237,#1238),.UNSPECIFIED.,.F.,
  .F.,(2,2),(0.,72.429),.PIECEWISE_BEZIER_KNOTS.);
#1237 = CARTESIAN_POINT('',(7.184022759444,29.657151154785,8.5));
#1238 = CARTESIAN_POINT('',(-0.481342017119,29.657151154785,8.5));
#1239 = ORIENTED_EDGE('',*,*,#1240,.F.);
#1240 = EDGE_CURVE('',#533,#1234,#1241,.T.);
#1241 = LINE('',#1242,#1243);
#1242 = CARTESIAN_POINT('',(-0.481342017119,29.657151154785,9.));
#1243 = VECTOR('',#1244,1.);
#1244 = DIRECTION('',(-0.,-0.,-1.));
#1245 = ORIENTED_EDGE('',*,*,#541,.F.);
#1246 = SURFACE_OF_LINEAR_EXTRUSION('',#1247,#1250);
#1247 = B_SPLINE_CURVE_WITH_KNOTS('',1,(#1248,#1249),.UNSPECIFIED.,.F.,
  .F.,(2,2),(0.,72.429),.PIECEWISE_BEZIER_KNOTS.);
#1248 = CARTESIAN_POINT('',(7.184022759444,29.657151154785,9.));
#1249 = CARTESIAN_POINT('',(-0.481342017119,29.657151154785,9.));
#1250 = VECTOR('',#1251,1.);
#1251 = DIRECTION('',(0.,0.,1.));
#1252 = ADVANCED_FACE('',(#1253),#1272,.F.);
#1253 = FACE_BOUND('',#1254,.F.);
#1254 = EDGE_LOOP('',(#1255,#1256,#1265,#1271));
#1255 = ORIENTED_EDGE('',*,*,#1240,.T.);
#1256 = ORIENTED_EDGE('',*,*,#1257,.T.);
#1257 = EDGE_CURVE('',#1234,#1258,#1260,.T.);
#1258 = VERTEX_POINT('',#1259);
#1259 = CARTESIAN_POINT('',(-4.573558211494,26.28129610166,8.5));
#1260 = B_SPLINE_CURVE_WITH_KNOTS('',3,(#1261,#1262,#1263,#1264),
  .UNSPECIFIED.,.F.,.F.,(4,4),(0.,1.),.PIECEWISE_BEZIER_KNOTS.);
#1261 = CARTESIAN_POINT('',(-0.481342017119,29.657151154785,8.5));
#1262 = CARTESIAN_POINT('',(-2.972223092119,29.657151154785,8.5));
#1263 = CARTESIAN_POINT('',(-4.573558211494,28.720319098535,8.5));
#1264 = CARTESIAN_POINT('',(-4.573558211494,26.28129610166,8.5));
#1265 = ORIENTED_EDGE('',*,*,#1266,.F.);
#1266 = EDGE_CURVE('',#524,#1258,#1267,.T.);
#1267 = LINE('',#1268,#1269);
#1268 = CARTESIAN_POINT('',(-4.573558211494,26.28129610166,9.));
#1269 = VECTOR('',#1270,1.);
#1270 = DIRECTION('',(-0.,-0.,-1.));
#1271 = ORIENTED_EDGE('',*,*,#532,.F.);
#1272 = SURFACE_OF_LINEAR_EXTRUSION('',#1273,#1278);
#1273 = B_SPLINE_CURVE_WITH_KNOTS('',3,(#1274,#1275,#1276,#1277),
  .UNSPECIFIED.,.F.,.F.,(4,4),(0.,1.),.PIECEWISE_BEZIER_KNOTS.);
#1274 = CARTESIAN_POINT('',(-0.481342017119,29.657151154785,9.));
#1275 = CARTESIAN_POINT('',(-2.972223092119,29.657151154785,9.));
#1276 = CARTESIAN_POINT('',(-4.573558211494,28.720319098535,9.));
#1277 = CARTESIAN_POINT('',(-4.573558211494,26.28129610166,9.));
#1278 = VECTOR('',#1279,1.);
#1279 = DIRECTION('',(0.,0.,1.));
#1280 = ADVANCED_FACE('',(#1281),#1300,.F.);
#1281 = FACE_BOUND('',#1282,.F.);
#1282 = EDGE_LOOP('',(#1283,#1284,#1293,#1299));
#1283 = ORIENTED_EDGE('',*,*,#1266,.T.);
#1284 = ORIENTED_EDGE('',*,*,#1285,.T.);
#1285 = EDGE_CURVE('',#1258,#1286,#1288,.T.);
#1286 = VERTEX_POINT('',#1287);
#1287 = CARTESIAN_POINT('',(-3.816133938994,23.585840200097,8.5));
#1288 = B_SPLINE_CURVE_WITH_KNOTS('',3,(#1289,#1290,#1291,#1292),
  .UNSPECIFIED.,.F.,.F.,(4,4),(0.,1.),.PIECEWISE_BEZIER_KNOTS.);
#1289 = CARTESIAN_POINT('',(-4.573558211494,26.28129610166,8.5));
#1290 = CARTESIAN_POINT('',(-4.573558211494,25.302342586035,8.5));
#1291 = CARTESIAN_POINT('',(-4.337857954775,24.346989787597,8.5));
#1292 = CARTESIAN_POINT('',(-3.816133938994,23.585840200097,8.5));
#1293 = ORIENTED_EDGE('',*,*,#1294,.F.);
#1294 = EDGE_CURVE('',#515,#1286,#1295,.T.);
#1295 = LINE('',#1296,#1297);
#1296 = CARTESIAN_POINT('',(-3.816133938994,23.585840200097,9.));
#1297 = VECTOR('',#1298,1.);
#1298 = DIRECTION('',(-0.,-0.,-1.));
#1299 = ORIENTED_EDGE('',*,*,#523,.F.);
#1300 = SURFACE_OF_LINEAR_EXTRUSION('',#1301,#1306);
#1301 = B_SPLINE_CURVE_WITH_KNOTS('',3,(#1302,#1303,#1304,#1305),
  .UNSPECIFIED.,.F.,.F.,(4,4),(0.,1.),.PIECEWISE_BEZIER_KNOTS.);
#1302 = CARTESIAN_POINT('',(-4.573558211494,26.28129610166,9.));
#1303 = CARTESIAN_POINT('',(-4.573558211494,25.302342586035,9.));
#1304 = CARTESIAN_POINT('',(-4.337857954775,24.346989787597,9.));
#1305 = CARTESIAN_POINT('',(-3.816133938994,23.585840200097,9.));
#1306 = VECTOR('',#1307,1.);
#1307 = DIRECTION('',(0.,0.,1.));
#1308 = ADVANCED_FACE('',(#1309),#1328,.F.);
#1309 = FACE_BOUND('',#1310,.F.);
#1310 = EDGE_LOOP('',(#1311,#1312,#1321,#1327));
#1311 = ORIENTED_EDGE('',*,*,#1294,.T.);
#1312 = ORIENTED_EDGE('',*,*,#1313,.T.);
#1313 = EDGE_CURVE('',#1286,#1314,#1316,.T.);
#1314 = VERTEX_POINT('',#1315);
#1315 = CARTESIAN_POINT('',(-3.997912377744,23.212250371972,8.5));
#1316 = B_SPLINE_CURVE_WITH_KNOTS('',3,(#1317,#1318,#1319,#1320),
  .UNSPECIFIED.,.F.,.F.,(4,4),(0.,1.),.PIECEWISE_BEZIER_KNOTS.);
#1317 = CARTESIAN_POINT('',(-3.816133938994,23.585840200097,8.5));
#1318 = CARTESIAN_POINT('',(-3.712523615556,23.434710943847,8.5));
#1319 = CARTESIAN_POINT('',(-3.814546446806,23.212250371972,8.5));
#1320 = CARTESIAN_POINT('',(-3.997912377744,23.212250371972,8.5));
#1321 = ORIENTED_EDGE('',*,*,#1322,.F.);
#1322 = EDGE_CURVE('',#508,#1314,#1323,.T.);
#1323 = LINE('',#1324,#1325);
#1324 = CARTESIAN_POINT('',(-3.997912377744,23.212250371972,9.));
#1325 = VECTOR('',#1326,1.);
#1326 = DIRECTION('',(-0.,-0.,-1.));
#1327 = ORIENTED_EDGE('',*,*,#514,.F.);
#1328 = SURFACE_OF_LINEAR_EXTRUSION('',#1329,#1334);
#1329 = B_SPLINE_CURVE_WITH_KNOTS('',3,(#1330,#1331,#1332,#1333),
  .UNSPECIFIED.,.F.,.F.,(4,4),(0.,1.),.PIECEWISE_BEZIER_KNOTS.);
#1330 = CARTESIAN_POINT('',(-3.816133938994,23.585840200097,9.));
#1331 = CARTESIAN_POINT('',(-3.712523615556,23.434710943847,9.));
#1332 = CARTESIAN_POINT('',(-3.814546446806,23.212250371972,9.));
#1333 = CARTESIAN_POINT('',(-3.997912377744,23.212250371972,9.));
#1334 = VECTOR('',#1335,1.);
#1335 = DIRECTION('',(0.,0.,1.));
#1336 = ADVANCED_FACE('',(#1337),#1347,.F.);
#1337 = FACE_BOUND('',#1338,.F.);
#1338 = EDGE_LOOP('',(#1339,#1340,#1345,#1346));
#1339 = ORIENTED_EDGE('',*,*,#1322,.T.);
#1340 = ORIENTED_EDGE('',*,*,#1341,.T.);
#1341 = EDGE_CURVE('',#1314,#858,#1342,.T.);
#1342 = B_SPLINE_CURVE_WITH_KNOTS('',1,(#1343,#1344),.UNSPECIFIED.,.F.,
  .F.,(2,2),(0.,51.0602),.PIECEWISE_BEZIER_KNOTS.);
#1343 = CARTESIAN_POINT('',(-3.997912377744,23.212250371972,8.5));
#1344 = CARTESIAN_POINT('',(-9.401756950556,23.212250371972,8.5));
#1345 = ORIENTED_EDGE('',*,*,#857,.F.);
#1346 = ORIENTED_EDGE('',*,*,#507,.F.);
#1347 = SURFACE_OF_LINEAR_EXTRUSION('',#1348,#1351);
#1348 = B_SPLINE_CURVE_WITH_KNOTS('',1,(#1349,#1350),.UNSPECIFIED.,.F.,
  .F.,(2,2),(0.,51.0602),.PIECEWISE_BEZIER_KNOTS.);
#1349 = CARTESIAN_POINT('',(-3.997912377744,23.212250371972,9.));
#1350 = CARTESIAN_POINT('',(-9.401756950556,23.212250371972,9.));
#1351 = VECTOR('',#1352,1.);
#1352 = DIRECTION('',(0.,0.,1.));
#1353 = ADVANCED_FACE('',(#1354),#1357,.F.);
#1354 = FACE_BOUND('',#1355,.T.);
#1355 = EDGE_LOOP('',(#1356));
#1356 = ORIENTED_EDGE('',*,*,#795,.T.);
#1357 = PLANE('',#1358);
#1358 = AXIS2_PLACEMENT_3D('',#1359,#1360,#1361);
#1359 = CARTESIAN_POINT('',(-9.E-17,26.97,-1.));
#1360 = DIRECTION('',(0.,0.,1.));
#1361 = DIRECTION('',(1.,0.,0.));
#1362 = ADVANCED_FACE('',(#1363),#1384,.T.);
#1363 = FACE_BOUND('',#1364,.T.);
#1364 = EDGE_LOOP('',(#1365,#1366,#1367,#1368,#1369,#1370,#1371,#1372,
    #1373,#1374,#1375,#1376,#1377,#1378,#1379,#1380,#1381,#1382,#1383));
#1365 = ORIENTED_EDGE('',*,*,#865,.T.);
#1366 = ORIENTED_EDGE('',*,*,#893,.T.);
#1367 = ORIENTED_EDGE('',*,*,#917,.T.);
#1368 = ORIENTED_EDGE('',*,*,#945,.T.);
#1369 = ORIENTED_EDGE('',*,*,#969,.T.);
#1370 = ORIENTED_EDGE('',*,*,#997,.T.);
#1371 = ORIENTED_EDGE('',*,*,#1021,.T.);
#1372 = ORIENTED_EDGE('',*,*,#1049,.T.);
#1373 = ORIENTED_EDGE('',*,*,#1073,.T.);
#1374 = ORIENTED_EDGE('',*,*,#1101,.T.);
#1375 = ORIENTED_EDGE('',*,*,#1129,.T.);
#1376 = ORIENTED_EDGE('',*,*,#1153,.T.);
#1377 = ORIENTED_EDGE('',*,*,#1181,.T.);
#1378 = ORIENTED_EDGE('',*,*,#1205,.T.);
#1379 = ORIENTED_EDGE('',*,*,#1233,.T.);
#1380 = ORIENTED_EDGE('',*,*,#1257,.T.);
#1381 = ORIENTED_EDGE('',*,*,#1285,.T.);
#1382 = ORIENTED_EDGE('',*,*,#1313,.T.);
#1383 = ORIENTED_EDGE('',*,*,#1341,.T.);
#1384 = PLANE('',#1385);
#1385 = AXIS2_PLACEMENT_3D('',#1386,#1387,#1388);
#1386 = CARTESIAN_POINT('',(0.169488953654,24.03500057518,8.5));
#1387 = DIRECTION('',(0.,0.,1.));
#1388 = DIRECTION('',(1.,0.,0.));
#1389 = ( GEOMETRIC_REPRESENTATION_CONTEXT(3) 
GLOBAL_UNCERTAINTY_ASSIGNED_CONTEXT((#1393)) 
GLOBAL_UNIT_ASSIGNED_CONTEXT((#1390,#1391,#1392)) REPRESENTATION_CONTEXT
('Context #1','3D Context with UNIT and UNCERTAINTY') );
#1390 = ( LENGTH_UNIT() NAMED_UNIT(*) SI_UNIT(.MILLI.,.METRE.) );
#1391 = ( NAMED_UNIT(*) PLANE_ANGLE_UNIT() SI_UNIT($,.RADIAN.) );
#1392 = ( NAMED_UNIT(*) SI_UNIT($,.STERADIAN.) SOLID_ANGLE_UNIT() );
#1393 = UNCERTAINTY_MEASURE_WITH_UNIT(LENGTH_MEASURE(2.E-06),#1390,
  'distance_accuracy_value','confusion accuracy');
#1394 = PRODUCT_RELATED_PRODUCT_CATEGORY('part',$,(#7));
#1395 = MECHANICAL_DESIGN_GEOMETRIC_PRESENTATION_REPRESENTATION('',(
    #1396),#1389);
#1396 = STYLED_ITEM('color',(#1397),#15);
#1397 = PRESENTATION_STYLE_ASSIGNMENT((#1398,#1404));
#1398 = SURFACE_STYLE_USAGE(.BOTH.,#1399);
#1399 = SURFACE_SIDE_STYLE('',(#1400));
#1400 = SURFACE_STYLE_FILL_AREA(#1401);
#1401 = FILL_AREA_STYLE('',(#1402));
#1402 = FILL_AREA_STYLE_COLOUR('',#1403);
#1403 = COLOUR_RGB('',0.447058818107,0.474509808674,0.501960817233);
#1404 = CURVE_STYLE('',#1405,POSITIVE_LENGTH_MEASURE(0.1),#1406);
#1405 = DRAUGHTING_PRE_DEFINED_CURVE_FONT('continuous');
#1406 = COLOUR_RGB('',9.803921802644E-02,9.803921802644E-02,
  9.803921802644E-02);
ENDSEC;
END-ISO-10303-21;
